%TF.GenerationSoftware,KiCad,Pcbnew,9.0.6*%
%TF.CreationDate,2026-01-20T00:14:11+05:30*%
%TF.ProjectId,buck_conv_lmr51430,6275636b-5f63-46f6-9e76-5f6c6d723531,rev?*%
%TF.SameCoordinates,Original*%
%TF.FileFunction,Copper,L1,Top*%
%TF.FilePolarity,Positive*%
%FSLAX46Y46*%
G04 Gerber Fmt 4.6, Leading zero omitted, Abs format (unit mm)*
G04 Created by KiCad (PCBNEW 9.0.6) date 2026-01-20 00:14:11*
%MOMM*%
%LPD*%
G01*
G04 APERTURE LIST*
G04 Aperture macros list*
%AMRoundRect*
0 Rectangle with rounded corners*
0 $1 Rounding radius*
0 $2 $3 $4 $5 $6 $7 $8 $9 X,Y pos of 4 corners*
0 Add a 4 corners polygon primitive as box body*
4,1,4,$2,$3,$4,$5,$6,$7,$8,$9,$2,$3,0*
0 Add four circle primitives for the rounded corners*
1,1,$1+$1,$2,$3*
1,1,$1+$1,$4,$5*
1,1,$1+$1,$6,$7*
1,1,$1+$1,$8,$9*
0 Add four rect primitives between the rounded corners*
20,1,$1+$1,$2,$3,$4,$5,0*
20,1,$1+$1,$4,$5,$6,$7,0*
20,1,$1+$1,$6,$7,$8,$9,0*
20,1,$1+$1,$8,$9,$2,$3,0*%
G04 Aperture macros list end*
%TA.AperFunction,SMDPad,CuDef*%
%ADD10RoundRect,0.150000X-0.512500X-0.150000X0.512500X-0.150000X0.512500X0.150000X-0.512500X0.150000X0*%
%TD*%
%TA.AperFunction,SMDPad,CuDef*%
%ADD11RoundRect,0.250000X-0.475000X0.337500X-0.475000X-0.337500X0.475000X-0.337500X0.475000X0.337500X0*%
%TD*%
%TA.AperFunction,SMDPad,CuDef*%
%ADD12RoundRect,0.250000X-0.337500X-0.475000X0.337500X-0.475000X0.337500X0.475000X-0.337500X0.475000X0*%
%TD*%
%TA.AperFunction,ComponentPad*%
%ADD13C,1.440000*%
%TD*%
%TA.AperFunction,ComponentPad*%
%ADD14RoundRect,0.250000X-1.050000X1.050000X-1.050000X-1.050000X1.050000X-1.050000X1.050000X1.050000X0*%
%TD*%
%TA.AperFunction,ComponentPad*%
%ADD15C,2.600000*%
%TD*%
%TA.AperFunction,SMDPad,CuDef*%
%ADD16RoundRect,0.250000X0.475000X-0.337500X0.475000X0.337500X-0.475000X0.337500X-0.475000X-0.337500X0*%
%TD*%
%TA.AperFunction,SMDPad,CuDef*%
%ADD17RoundRect,0.250000X-0.450000X0.350000X-0.450000X-0.350000X0.450000X-0.350000X0.450000X0.350000X0*%
%TD*%
%TA.AperFunction,SMDPad,CuDef*%
%ADD18RoundRect,0.250002X1.799998X1.799998X-1.799998X1.799998X-1.799998X-1.799998X1.799998X-1.799998X0*%
%TD*%
%TA.AperFunction,ComponentPad*%
%ADD19RoundRect,0.250000X1.050000X-1.050000X1.050000X1.050000X-1.050000X1.050000X-1.050000X-1.050000X0*%
%TD*%
%TA.AperFunction,ViaPad*%
%ADD20C,0.600000*%
%TD*%
%TA.AperFunction,Conductor*%
%ADD21C,0.400000*%
%TD*%
%TA.AperFunction,Conductor*%
%ADD22C,0.600000*%
%TD*%
%TA.AperFunction,Conductor*%
%ADD23C,1.500000*%
%TD*%
G04 APERTURE END LIST*
D10*
%TO.P,U1,1,GND*%
%TO.N,GND*%
X154362500Y-89050000D03*
%TO.P,U1,2,SW*%
%TO.N,/SW*%
X154362500Y-90000000D03*
%TO.P,U1,3,VIN*%
%TO.N,/VIN*%
X154362500Y-90950000D03*
%TO.P,U1,4,FB*%
%TO.N,/FB*%
X156637500Y-90950000D03*
%TO.P,U1,5,EN*%
%TO.N,/VIN*%
X156637500Y-90000000D03*
%TO.P,U1,6,CB*%
%TO.N,Net-(U1-CB)*%
X156637500Y-89050000D03*
%TD*%
D11*
%TO.P,C4,1*%
%TO.N,/VOUT*%
X172000000Y-88962500D03*
%TO.P,C4,2*%
%TO.N,GND*%
X172000000Y-91037500D03*
%TD*%
D12*
%TO.P,C2,1*%
%TO.N,/VIN*%
X154462500Y-94000000D03*
%TO.P,C2,2*%
%TO.N,GND*%
X156537500Y-94000000D03*
%TD*%
D13*
%TO.P,RV1,1,1*%
%TO.N,unconnected-(RV1-Pad1)*%
X174540000Y-95500000D03*
%TO.P,RV1,2,2*%
%TO.N,Net-(R2-Pad2)*%
X172000000Y-95500000D03*
%TO.P,RV1,3,3*%
%TO.N,GND*%
X169460000Y-95500000D03*
%TD*%
D14*
%TO.P,J1,1,Pin_1*%
%TO.N,/VIN*%
X125827500Y-87500000D03*
D15*
%TO.P,J1,2,Pin_2*%
%TO.N,GND*%
X125827500Y-92500000D03*
%TD*%
D16*
%TO.P,C3,1*%
%TO.N,Net-(U1-CB)*%
X160000000Y-87537500D03*
%TO.P,C3,2*%
%TO.N,/SW*%
X160000000Y-85462500D03*
%TD*%
D17*
%TO.P,R2,1*%
%TO.N,/FB*%
X166000000Y-94000000D03*
%TO.P,R2,2*%
%TO.N,Net-(R2-Pad2)*%
X166000000Y-96000000D03*
%TD*%
D11*
%TO.P,C6,1*%
%TO.N,/VOUT*%
X175000000Y-88962500D03*
%TO.P,C6,2*%
%TO.N,GND*%
X175000000Y-91037500D03*
%TD*%
D12*
%TO.P,C1,1*%
%TO.N,/VIN*%
X154462500Y-97000000D03*
%TO.P,C1,2*%
%TO.N,GND*%
X156537500Y-97000000D03*
%TD*%
D17*
%TO.P,R1,1*%
%TO.N,/VOUT*%
X166000000Y-89000000D03*
%TO.P,R1,2*%
%TO.N,/FB*%
X166000000Y-91000000D03*
%TD*%
D18*
%TO.P,L1,1,1*%
%TO.N,/SW*%
X145750000Y-87000000D03*
%TO.P,L1,2,2*%
%TO.N,/VOUT*%
X136250000Y-87000000D03*
%TD*%
D11*
%TO.P,C5,1*%
%TO.N,/VOUT*%
X168990000Y-88962500D03*
%TO.P,C5,2*%
%TO.N,GND*%
X168990000Y-91037500D03*
%TD*%
D19*
%TO.P,J2,1,Pin_1*%
%TO.N,GND*%
X184172500Y-92500000D03*
D15*
%TO.P,J2,2,Pin_2*%
%TO.N,/VOUT*%
X184172500Y-87500000D03*
%TD*%
D20*
%TO.N,GND*%
X187500000Y-97500000D03*
X130000000Y-87500000D03*
X187500000Y-90000000D03*
X127500000Y-97500000D03*
X154500000Y-86500000D03*
X158500000Y-94500000D03*
X175500000Y-92500000D03*
X174500000Y-92500000D03*
X140000000Y-95000000D03*
X155500000Y-86500000D03*
X187500000Y-85000000D03*
X130000000Y-95000000D03*
X187500000Y-82500000D03*
X163000000Y-89500000D03*
X159500000Y-94500000D03*
X172500000Y-82500000D03*
X175000000Y-85000000D03*
X122500000Y-97500000D03*
X137500000Y-97500000D03*
X122500000Y-87500000D03*
X140000000Y-87500000D03*
X172500000Y-85000000D03*
X156500000Y-86500000D03*
X125000000Y-97500000D03*
X182500000Y-82500000D03*
X132500000Y-82500000D03*
X145000000Y-97500000D03*
X122500000Y-92500000D03*
X162500000Y-97500000D03*
X162000000Y-87500000D03*
X130000000Y-82500000D03*
X132500000Y-90000000D03*
X140000000Y-90000000D03*
X165000000Y-97500000D03*
X180000000Y-92500000D03*
X122500000Y-85000000D03*
X180000000Y-85000000D03*
X187500000Y-95000000D03*
X159500000Y-93500000D03*
X158500000Y-96500000D03*
X142500000Y-95000000D03*
X155500000Y-87500000D03*
X142500000Y-90000000D03*
X156500000Y-87500000D03*
X167500000Y-85000000D03*
X158500000Y-97500000D03*
X165000000Y-82500000D03*
X142500000Y-87500000D03*
X130000000Y-97500000D03*
X185000000Y-82500000D03*
X177500000Y-82500000D03*
X158500000Y-92500000D03*
X182500000Y-85000000D03*
X145000000Y-95000000D03*
X170000000Y-85000000D03*
X168500000Y-92500000D03*
X177500000Y-92500000D03*
X158500000Y-93500000D03*
X140000000Y-97500000D03*
X132500000Y-97500000D03*
X169500000Y-92500000D03*
X130000000Y-85000000D03*
X185000000Y-97500000D03*
X170000000Y-82500000D03*
X175000000Y-82500000D03*
X182500000Y-97500000D03*
X187500000Y-92500000D03*
X135000000Y-97500000D03*
X135000000Y-82500000D03*
X135000000Y-95000000D03*
X147500000Y-97500000D03*
X171500000Y-92500000D03*
X177500000Y-85000000D03*
X122500000Y-90000000D03*
X180000000Y-82500000D03*
X132500000Y-87500000D03*
X127500000Y-82500000D03*
X163000000Y-87500000D03*
X162000000Y-88500000D03*
X122500000Y-95000000D03*
X132500000Y-95000000D03*
X142500000Y-97500000D03*
X122500000Y-82500000D03*
X125000000Y-82500000D03*
X159500000Y-92500000D03*
X172500000Y-92500000D03*
X132500000Y-85000000D03*
X187500000Y-87500000D03*
X167500000Y-82500000D03*
X162000000Y-89500000D03*
X137500000Y-95000000D03*
X163000000Y-88500000D03*
X154500000Y-87500000D03*
X147500000Y-95000000D03*
%TO.N,/VIN*%
X152500000Y-92000000D03*
X152500000Y-94000000D03*
X159000000Y-90000000D03*
X151500000Y-94000000D03*
X152500000Y-93000000D03*
X151500000Y-92000000D03*
X151500000Y-93000000D03*
%TO.N,/SW*%
X152500000Y-89000000D03*
X150500000Y-90000000D03*
X151500000Y-90000000D03*
X150500000Y-89000000D03*
X158250000Y-86500000D03*
X151500000Y-89000000D03*
X152500000Y-90000000D03*
%TD*%
D21*
%TO.N,Net-(U1-CB)*%
X160000000Y-87537500D02*
X158487500Y-89050000D01*
X158487500Y-89050000D02*
X156637500Y-89050000D01*
%TO.N,Net-(R2-Pad2)*%
X166000000Y-96000000D02*
X167500000Y-97500000D01*
X167500000Y-97500000D02*
X170000000Y-97500000D01*
X170000000Y-97500000D02*
X172000000Y-95500000D01*
%TO.N,/VIN*%
X156637500Y-90000000D02*
X159000000Y-90000000D01*
%TO.N,/SW*%
X158250000Y-86500000D02*
X159250000Y-85500000D01*
X159250000Y-85500000D02*
X159962500Y-85500000D01*
D22*
X152500000Y-90000000D02*
X154362500Y-90000000D01*
D21*
X159962500Y-85500000D02*
X160000000Y-85462500D01*
D23*
%TO.N,/VOUT*%
X166037500Y-88962500D02*
X166037500Y-87037500D01*
X166037500Y-88962500D02*
X166000000Y-89000000D01*
X182710000Y-88962500D02*
X175000000Y-88962500D01*
X175000000Y-88962500D02*
X172000000Y-88962500D01*
X184172500Y-87500000D02*
X182710000Y-88962500D01*
X162000000Y-83000000D02*
X140250000Y-83000000D01*
X140250000Y-83000000D02*
X136250000Y-87000000D01*
X168990000Y-88962500D02*
X166037500Y-88962500D01*
X166037500Y-87037500D02*
X162000000Y-83000000D01*
X172000000Y-88962500D02*
X168990000Y-88962500D01*
D21*
%TO.N,/FB*%
X165950000Y-90950000D02*
X156637500Y-90950000D01*
X166000000Y-91000000D02*
X165950000Y-90950000D01*
X166000000Y-91000000D02*
X166000000Y-94000000D01*
%TD*%
%TA.AperFunction,Conductor*%
%TO.N,/SW*%
G36*
X152943039Y-84519685D02*
G01*
X152988794Y-84572489D01*
X153000000Y-84624000D01*
X153000000Y-90376000D01*
X152980315Y-90443039D01*
X152927511Y-90488794D01*
X152876000Y-90500000D01*
X143374000Y-90500000D01*
X143365314Y-90497449D01*
X143356353Y-90498738D01*
X143332312Y-90487759D01*
X143306961Y-90480315D01*
X143301033Y-90473474D01*
X143292797Y-90469713D01*
X143278507Y-90447478D01*
X143261206Y-90427511D01*
X143258918Y-90416996D01*
X143255023Y-90410935D01*
X143250000Y-90376000D01*
X143250000Y-90305811D01*
X143259439Y-90258358D01*
X143269737Y-90233497D01*
X143300500Y-90078842D01*
X143300500Y-89921158D01*
X143300500Y-89921155D01*
X143300499Y-89921153D01*
X143269739Y-89766511D01*
X143269738Y-89766510D01*
X143269737Y-89766503D01*
X143259437Y-89741636D01*
X143250000Y-89694189D01*
X143250000Y-87805811D01*
X143259439Y-87758358D01*
X143269737Y-87733497D01*
X143300500Y-87578842D01*
X143300500Y-87421158D01*
X143300500Y-87421155D01*
X143300499Y-87421153D01*
X143269739Y-87266511D01*
X143269738Y-87266510D01*
X143269737Y-87266503D01*
X143259437Y-87241636D01*
X143250000Y-87194189D01*
X143250000Y-84624000D01*
X143269685Y-84556961D01*
X143322489Y-84511206D01*
X143374000Y-84500000D01*
X152876000Y-84500000D01*
X152943039Y-84519685D01*
G37*
%TD.AperFunction*%
%TD*%
%TA.AperFunction,Conductor*%
%TO.N,GND*%
G36*
X161497703Y-84270185D02*
G01*
X161518345Y-84286819D01*
X164750681Y-87519155D01*
X164784166Y-87580478D01*
X164787000Y-87606836D01*
X164787000Y-88666886D01*
X164781372Y-88702418D01*
X164781429Y-88702432D01*
X164781258Y-88703144D01*
X164780932Y-88705199D01*
X164780315Y-88707098D01*
X164780290Y-88707177D01*
X164749500Y-88901577D01*
X164749500Y-89098422D01*
X164780290Y-89292824D01*
X164793432Y-89333272D01*
X164799500Y-89371584D01*
X164799500Y-89400000D01*
X164799501Y-89400018D01*
X164810001Y-89502797D01*
X164810001Y-89502799D01*
X164865185Y-89669331D01*
X164865187Y-89669336D01*
X164900069Y-89725888D01*
X164941339Y-89792799D01*
X164957289Y-89818657D01*
X165050951Y-89912319D01*
X165054268Y-89918394D01*
X165059949Y-89922352D01*
X165070798Y-89948667D01*
X165084436Y-89973642D01*
X165083942Y-89980545D01*
X165086581Y-89986946D01*
X165081482Y-90014944D01*
X165079452Y-90043334D01*
X165075003Y-90050522D01*
X165074063Y-90055686D01*
X165058324Y-90077473D01*
X165053887Y-90084644D01*
X165052455Y-90086176D01*
X164957288Y-90181344D01*
X164945093Y-90201114D01*
X164936659Y-90210144D01*
X164916791Y-90221887D01*
X164899632Y-90237322D01*
X164885092Y-90240626D01*
X164876512Y-90245698D01*
X164864712Y-90245257D01*
X164846042Y-90249500D01*
X159917649Y-90249500D01*
X159850610Y-90229815D01*
X159804855Y-90177011D01*
X159794911Y-90107853D01*
X159796031Y-90101310D01*
X159800500Y-90078841D01*
X159800500Y-89921155D01*
X159800499Y-89921153D01*
X159780111Y-89818656D01*
X159769737Y-89766503D01*
X159729619Y-89669648D01*
X159709397Y-89620827D01*
X159709390Y-89620814D01*
X159621789Y-89489711D01*
X159621786Y-89489707D01*
X159510292Y-89378213D01*
X159510288Y-89378210D01*
X159419908Y-89317820D01*
X159375103Y-89264208D01*
X159366396Y-89194883D01*
X159396550Y-89131856D01*
X159401099Y-89127056D01*
X159866338Y-88661818D01*
X159927661Y-88628333D01*
X159954019Y-88625499D01*
X160525002Y-88625499D01*
X160525008Y-88625499D01*
X160627797Y-88614999D01*
X160794334Y-88559814D01*
X160943656Y-88467712D01*
X161067712Y-88343656D01*
X161159814Y-88194334D01*
X161214999Y-88027797D01*
X161225500Y-87925009D01*
X161225499Y-87149992D01*
X161225294Y-87147989D01*
X161214999Y-87047203D01*
X161214998Y-87047200D01*
X161202767Y-87010289D01*
X161159814Y-86880666D01*
X161067712Y-86731344D01*
X160943656Y-86607288D01*
X160940819Y-86605538D01*
X160939283Y-86603830D01*
X160937989Y-86602807D01*
X160938163Y-86602585D01*
X160894096Y-86553594D01*
X160882872Y-86484632D01*
X160910713Y-86420549D01*
X160940817Y-86394462D01*
X160943656Y-86392712D01*
X161067712Y-86268656D01*
X161159814Y-86119334D01*
X161214999Y-85952797D01*
X161225500Y-85850009D01*
X161225499Y-85074992D01*
X161222660Y-85047204D01*
X161214999Y-84972203D01*
X161214998Y-84972200D01*
X161206815Y-84947506D01*
X161159814Y-84805666D01*
X161067712Y-84656344D01*
X160943656Y-84532288D01*
X160858945Y-84480038D01*
X160812222Y-84428091D01*
X160800999Y-84359128D01*
X160828843Y-84295046D01*
X160886911Y-84256190D01*
X160924043Y-84250500D01*
X161430664Y-84250500D01*
X161497703Y-84270185D01*
G37*
%TD.AperFunction*%
%TA.AperFunction,Conductor*%
G36*
X159142996Y-84270185D02*
G01*
X159188751Y-84322989D01*
X159198695Y-84392147D01*
X159169670Y-84455703D01*
X159141055Y-84480038D01*
X159138552Y-84481582D01*
X159056342Y-84532289D01*
X158932289Y-84656342D01*
X158840187Y-84805663D01*
X158840186Y-84805666D01*
X158793184Y-84947506D01*
X158763159Y-84996182D01*
X158055412Y-85703929D01*
X158015184Y-85730809D01*
X157870823Y-85790604D01*
X157870814Y-85790609D01*
X157739711Y-85878210D01*
X157739707Y-85878213D01*
X157628213Y-85989707D01*
X157628210Y-85989711D01*
X157540609Y-86120814D01*
X157540602Y-86120827D01*
X157480264Y-86266498D01*
X157480261Y-86266510D01*
X157449500Y-86421153D01*
X157449500Y-86578846D01*
X157480261Y-86733489D01*
X157480264Y-86733501D01*
X157540602Y-86879172D01*
X157540609Y-86879185D01*
X157628210Y-87010288D01*
X157628213Y-87010292D01*
X157739707Y-87121786D01*
X157739711Y-87121789D01*
X157870814Y-87209390D01*
X157870827Y-87209397D01*
X158016498Y-87269735D01*
X158016503Y-87269737D01*
X158132413Y-87292793D01*
X158171153Y-87300499D01*
X158171156Y-87300500D01*
X158171158Y-87300500D01*
X158328844Y-87300500D01*
X158328845Y-87300499D01*
X158483497Y-87269737D01*
X158550631Y-87241929D01*
X158603048Y-87220218D01*
X158672517Y-87212749D01*
X158734996Y-87244024D01*
X158770648Y-87304113D01*
X158774500Y-87334779D01*
X158774500Y-87720980D01*
X158754815Y-87788019D01*
X158738181Y-87808661D01*
X158233662Y-88313181D01*
X158172339Y-88346666D01*
X158145981Y-88349500D01*
X157530969Y-88349500D01*
X157467848Y-88332232D01*
X157410396Y-88298255D01*
X157410393Y-88298254D01*
X157252573Y-88252402D01*
X157252567Y-88252401D01*
X157215701Y-88249500D01*
X157215694Y-88249500D01*
X156059306Y-88249500D01*
X156059298Y-88249500D01*
X156022432Y-88252401D01*
X156022426Y-88252402D01*
X155864606Y-88298254D01*
X155864603Y-88298255D01*
X155723137Y-88381917D01*
X155723129Y-88381923D01*
X155606923Y-88498129D01*
X155606917Y-88498137D01*
X155523255Y-88639603D01*
X155523254Y-88639606D01*
X155477402Y-88797426D01*
X155477401Y-88797432D01*
X155474500Y-88834298D01*
X155474500Y-89232104D01*
X155454815Y-89299143D01*
X155402011Y-89344898D01*
X155332853Y-89354842D01*
X155284502Y-89334330D01*
X155283580Y-89335890D01*
X155162371Y-89264208D01*
X155135398Y-89248256D01*
X155135397Y-89248255D01*
X155135396Y-89248255D01*
X155135393Y-89248254D01*
X154977573Y-89202402D01*
X154977567Y-89202401D01*
X154940701Y-89199500D01*
X154940694Y-89199500D01*
X154441342Y-89199500D01*
X153629500Y-89199500D01*
X153562461Y-89179815D01*
X153516706Y-89127011D01*
X153505500Y-89075500D01*
X153505500Y-84624010D01*
X153505500Y-84624000D01*
X153493947Y-84516544D01*
X153482741Y-84465033D01*
X153468145Y-84421181D01*
X153465642Y-84413659D01*
X153463149Y-84343833D01*
X153498802Y-84283745D01*
X153561281Y-84252470D01*
X153583297Y-84250500D01*
X159075957Y-84250500D01*
X159142996Y-84270185D01*
G37*
%TD.AperFunction*%
%TA.AperFunction,Conductor*%
G36*
X189442539Y-80520185D02*
G01*
X189488294Y-80572989D01*
X189499500Y-80624500D01*
X189499500Y-99375500D01*
X189479815Y-99442539D01*
X189427011Y-99488294D01*
X189375500Y-99499500D01*
X120624500Y-99499500D01*
X120557461Y-99479815D01*
X120511706Y-99427011D01*
X120500500Y-99375500D01*
X120500500Y-86399983D01*
X124027000Y-86399983D01*
X124027000Y-88600001D01*
X124027001Y-88600018D01*
X124037500Y-88702796D01*
X124037501Y-88702799D01*
X124092685Y-88869331D01*
X124092687Y-88869336D01*
X124112577Y-88901583D01*
X124184788Y-89018656D01*
X124308844Y-89142712D01*
X124458166Y-89234814D01*
X124624703Y-89289999D01*
X124727491Y-89300500D01*
X126927508Y-89300499D01*
X126940783Y-89299143D01*
X127002622Y-89292826D01*
X127030297Y-89289999D01*
X127196834Y-89234814D01*
X127346156Y-89142712D01*
X127470212Y-89018656D01*
X127562314Y-88869334D01*
X127617499Y-88702797D01*
X127628000Y-88600009D01*
X127627999Y-86399992D01*
X127617499Y-86297203D01*
X127562314Y-86130666D01*
X127470212Y-85981344D01*
X127346156Y-85857288D01*
X127239324Y-85791394D01*
X127196836Y-85765187D01*
X127196831Y-85765185D01*
X127195362Y-85764698D01*
X127030297Y-85710001D01*
X127030295Y-85710000D01*
X126927510Y-85699500D01*
X124727498Y-85699500D01*
X124727481Y-85699501D01*
X124624703Y-85710000D01*
X124624700Y-85710001D01*
X124458168Y-85765185D01*
X124458163Y-85765187D01*
X124308842Y-85857289D01*
X124184789Y-85981342D01*
X124092687Y-86130663D01*
X124092685Y-86130668D01*
X124088462Y-86143412D01*
X124037501Y-86297203D01*
X124037501Y-86297204D01*
X124037500Y-86297204D01*
X124027000Y-86399983D01*
X120500500Y-86399983D01*
X120500500Y-85149985D01*
X133699500Y-85149985D01*
X133699500Y-88849999D01*
X133699501Y-88850016D01*
X133710000Y-88952795D01*
X133710001Y-88952798D01*
X133731825Y-89018657D01*
X133765186Y-89119333D01*
X133857289Y-89268655D01*
X133981345Y-89392711D01*
X134130667Y-89484814D01*
X134297204Y-89539999D01*
X134399993Y-89550500D01*
X138100006Y-89550499D01*
X138202796Y-89539999D01*
X138369333Y-89484814D01*
X138518655Y-89392711D01*
X138642711Y-89268655D01*
X138734814Y-89119333D01*
X138789999Y-88952796D01*
X138800500Y-88850007D01*
X138800499Y-86269334D01*
X138820184Y-86202296D01*
X138836813Y-86181659D01*
X140731655Y-84286819D01*
X140792978Y-84253334D01*
X140819336Y-84250500D01*
X142667252Y-84250500D01*
X142734291Y-84270185D01*
X142780046Y-84322989D01*
X142789990Y-84392147D01*
X142785399Y-84410143D01*
X142785910Y-84410293D01*
X142784663Y-84414537D01*
X142784662Y-84414541D01*
X142777132Y-84440186D01*
X142764976Y-84481582D01*
X142759949Y-84516549D01*
X142744502Y-84623990D01*
X142744500Y-84624001D01*
X142744500Y-87194187D01*
X142754210Y-87292793D01*
X142754210Y-87292798D01*
X142763649Y-87340251D01*
X142763651Y-87340259D01*
X142777433Y-87385694D01*
X142780389Y-87397494D01*
X142792617Y-87458963D01*
X142795000Y-87483156D01*
X142795000Y-87516840D01*
X142792617Y-87541034D01*
X142780387Y-87602511D01*
X142777432Y-87614309D01*
X142763652Y-87659738D01*
X142754211Y-87707202D01*
X142744500Y-87805813D01*
X142744500Y-89694187D01*
X142754210Y-89792793D01*
X142754210Y-89792798D01*
X142763649Y-89840251D01*
X142763651Y-89840259D01*
X142777433Y-89885694D01*
X142780389Y-89897494D01*
X142792617Y-89958963D01*
X142795000Y-89983156D01*
X142795000Y-90016840D01*
X142792617Y-90041034D01*
X142780387Y-90102511D01*
X142777432Y-90114309D01*
X142763652Y-90159738D01*
X142754211Y-90207202D01*
X142744500Y-90305813D01*
X142744500Y-90376001D01*
X142749645Y-90447943D01*
X142754667Y-90482877D01*
X142767257Y-90540750D01*
X142769997Y-90553341D01*
X142782447Y-90580604D01*
X142801384Y-90637497D01*
X142825720Y-90675366D01*
X142829406Y-90683437D01*
X142829408Y-90683441D01*
X142829768Y-90684231D01*
X142829770Y-90684234D01*
X142864246Y-90737879D01*
X142864256Y-90737893D01*
X142867547Y-90743013D01*
X142867550Y-90743018D01*
X142871162Y-90747186D01*
X142873932Y-90750914D01*
X142874315Y-90751953D01*
X142878719Y-90757836D01*
X142879167Y-90758534D01*
X142879172Y-90758541D01*
X142885382Y-90765707D01*
X142885384Y-90765710D01*
X142893322Y-90774872D01*
X142895685Y-90777599D01*
X142895690Y-90777604D01*
X142924930Y-90811349D01*
X142924933Y-90811351D01*
X142924936Y-90811355D01*
X142925578Y-90811911D01*
X142938091Y-90824423D01*
X142961775Y-90851753D01*
X142992182Y-90871293D01*
X143006339Y-90881890D01*
X143033663Y-90905566D01*
X143064922Y-90919841D01*
X143066557Y-90920588D01*
X143078392Y-90926784D01*
X143080251Y-90927888D01*
X143082816Y-90929537D01*
X143091052Y-90933298D01*
X143122322Y-90947578D01*
X143122322Y-90947579D01*
X143146191Y-90958479D01*
X143146381Y-90958567D01*
X143146394Y-90958572D01*
X143147198Y-90958808D01*
X143163806Y-90965002D01*
X143164540Y-90965337D01*
X143189891Y-90972781D01*
X143189891Y-90972780D01*
X143222869Y-90982463D01*
X143222869Y-90982464D01*
X143230713Y-90984767D01*
X143231539Y-90985017D01*
X143231580Y-90985023D01*
X143231584Y-90985024D01*
X143232448Y-90985148D01*
X143249735Y-90988907D01*
X143284446Y-90999097D01*
X143320577Y-90999094D01*
X143338216Y-91000355D01*
X143374000Y-91005500D01*
X150370500Y-91005500D01*
X150437539Y-91025185D01*
X150483294Y-91077989D01*
X150494500Y-91129500D01*
X150494500Y-98126000D01*
X150494501Y-98126009D01*
X150506052Y-98233450D01*
X150506054Y-98233462D01*
X150517260Y-98284972D01*
X150551383Y-98387497D01*
X150551386Y-98387503D01*
X150629171Y-98508537D01*
X150629179Y-98508548D01*
X150674923Y-98561340D01*
X150674926Y-98561343D01*
X150674930Y-98561347D01*
X150783664Y-98655567D01*
X150783667Y-98655568D01*
X150783668Y-98655569D01*
X150877925Y-98698616D01*
X150914541Y-98715338D01*
X150981580Y-98735023D01*
X150981584Y-98735024D01*
X151124000Y-98755500D01*
X151124003Y-98755500D01*
X155125990Y-98755500D01*
X155126000Y-98755500D01*
X155233456Y-98743947D01*
X155284967Y-98732741D01*
X155319197Y-98721347D01*
X155387497Y-98698616D01*
X155387501Y-98698613D01*
X155387504Y-98698613D01*
X155508543Y-98620825D01*
X155561347Y-98575070D01*
X155655567Y-98466336D01*
X155715338Y-98335459D01*
X155735023Y-98268420D01*
X155735024Y-98268416D01*
X155755500Y-98126000D01*
X155755500Y-91835199D01*
X155775185Y-91768160D01*
X155827989Y-91722405D01*
X155897147Y-91712461D01*
X155914089Y-91716121D01*
X156022431Y-91747598D01*
X156059306Y-91750500D01*
X156059314Y-91750500D01*
X157215686Y-91750500D01*
X157215694Y-91750500D01*
X157252569Y-91747598D01*
X157252571Y-91747597D01*
X157252573Y-91747597D01*
X157294191Y-91735505D01*
X157410398Y-91701744D01*
X157467848Y-91667767D01*
X157530969Y-91650500D01*
X164784362Y-91650500D01*
X164851401Y-91670185D01*
X164889899Y-91709401D01*
X164957288Y-91818656D01*
X165081344Y-91942712D01*
X165230666Y-92034814D01*
X165230667Y-92034814D01*
X165236813Y-92038605D01*
X165235706Y-92040399D01*
X165280337Y-92079687D01*
X165299500Y-92145908D01*
X165299500Y-92854091D01*
X165279815Y-92921130D01*
X165235731Y-92959641D01*
X165236813Y-92961395D01*
X165230667Y-92965185D01*
X165230666Y-92965186D01*
X165132419Y-93025784D01*
X165081342Y-93057289D01*
X164957289Y-93181342D01*
X164865187Y-93330663D01*
X164865186Y-93330666D01*
X164810001Y-93497203D01*
X164810001Y-93497204D01*
X164810000Y-93497204D01*
X164799500Y-93599983D01*
X164799500Y-94400001D01*
X164799501Y-94400019D01*
X164810000Y-94502796D01*
X164810001Y-94502799D01*
X164865185Y-94669331D01*
X164865187Y-94669336D01*
X164957289Y-94818657D01*
X165050951Y-94912319D01*
X165084436Y-94973642D01*
X165079452Y-95043334D01*
X165050951Y-95087681D01*
X164957289Y-95181342D01*
X164865187Y-95330663D01*
X164865186Y-95330666D01*
X164810001Y-95497203D01*
X164810001Y-95497204D01*
X164810000Y-95497204D01*
X164799500Y-95599983D01*
X164799500Y-96400001D01*
X164799501Y-96400019D01*
X164810000Y-96502796D01*
X164810001Y-96502799D01*
X164865185Y-96669331D01*
X164865187Y-96669336D01*
X164885462Y-96702207D01*
X164957288Y-96818656D01*
X165081344Y-96942712D01*
X165230666Y-97034814D01*
X165397203Y-97089999D01*
X165499991Y-97100500D01*
X166058480Y-97100499D01*
X166125519Y-97120183D01*
X166146161Y-97136818D01*
X166955886Y-97946542D01*
X167053455Y-98044111D01*
X167053459Y-98044115D01*
X167168182Y-98120771D01*
X167168186Y-98120773D01*
X167168189Y-98120775D01*
X167242866Y-98151707D01*
X167295671Y-98173580D01*
X167322591Y-98178934D01*
X167419630Y-98198237D01*
X167431006Y-98200500D01*
X167431007Y-98200500D01*
X170068996Y-98200500D01*
X170177412Y-98178934D01*
X170204328Y-98173580D01*
X170268069Y-98147177D01*
X170331807Y-98120777D01*
X170331808Y-98120776D01*
X170331811Y-98120775D01*
X170446543Y-98044114D01*
X171743775Y-96746880D01*
X171805096Y-96713397D01*
X171850847Y-96712090D01*
X171903945Y-96720500D01*
X171903947Y-96720500D01*
X172096054Y-96720500D01*
X172096055Y-96720500D01*
X172285801Y-96690447D01*
X172468509Y-96631082D01*
X172639681Y-96543865D01*
X172795102Y-96430945D01*
X172930945Y-96295102D01*
X173043865Y-96139681D01*
X173131082Y-95968509D01*
X173131084Y-95968504D01*
X173152069Y-95903919D01*
X173191506Y-95846243D01*
X173255864Y-95819044D01*
X173324711Y-95830958D01*
X173376187Y-95878202D01*
X173387931Y-95903919D01*
X173408915Y-95968504D01*
X173408918Y-95968509D01*
X173496135Y-96139681D01*
X173609055Y-96295102D01*
X173744898Y-96430945D01*
X173900319Y-96543865D01*
X174071491Y-96631082D01*
X174071493Y-96631083D01*
X174162845Y-96660764D01*
X174254199Y-96690447D01*
X174443945Y-96720500D01*
X174443946Y-96720500D01*
X174636054Y-96720500D01*
X174636055Y-96720500D01*
X174825801Y-96690447D01*
X175008509Y-96631082D01*
X175179681Y-96543865D01*
X175335102Y-96430945D01*
X175470945Y-96295102D01*
X175583865Y-96139681D01*
X175671082Y-95968509D01*
X175730447Y-95785801D01*
X175760500Y-95596055D01*
X175760500Y-95403945D01*
X175730447Y-95214199D01*
X175700424Y-95121797D01*
X175671083Y-95031493D01*
X175641606Y-94973642D01*
X175583865Y-94860319D01*
X175470945Y-94704898D01*
X175335102Y-94569055D01*
X175179681Y-94456135D01*
X175069548Y-94400019D01*
X175008506Y-94368916D01*
X174825802Y-94309553D01*
X174730928Y-94294526D01*
X174636055Y-94279500D01*
X174443945Y-94279500D01*
X174380696Y-94289517D01*
X174254197Y-94309553D01*
X174071493Y-94368916D01*
X173900318Y-94456135D01*
X173811645Y-94520560D01*
X173744898Y-94569055D01*
X173744896Y-94569057D01*
X173744895Y-94569057D01*
X173609057Y-94704895D01*
X173609057Y-94704896D01*
X173609055Y-94704898D01*
X173560560Y-94771645D01*
X173496135Y-94860318D01*
X173408916Y-95031493D01*
X173387931Y-95096081D01*
X173348494Y-95153756D01*
X173284135Y-95180955D01*
X173215289Y-95169041D01*
X173163813Y-95121797D01*
X173152069Y-95096081D01*
X173131083Y-95031493D01*
X173101606Y-94973642D01*
X173043865Y-94860319D01*
X172930945Y-94704898D01*
X172795102Y-94569055D01*
X172639681Y-94456135D01*
X172529548Y-94400019D01*
X172468506Y-94368916D01*
X172285802Y-94309553D01*
X172190928Y-94294526D01*
X172096055Y-94279500D01*
X171903945Y-94279500D01*
X171840696Y-94289517D01*
X171714197Y-94309553D01*
X171531493Y-94368916D01*
X171360318Y-94456135D01*
X171271645Y-94520560D01*
X171204898Y-94569055D01*
X171204896Y-94569057D01*
X171204895Y-94569057D01*
X171069057Y-94704895D01*
X171069057Y-94704896D01*
X171069055Y-94704898D01*
X171020560Y-94771645D01*
X170956135Y-94860318D01*
X170868916Y-95031493D01*
X170809553Y-95214197D01*
X170779500Y-95403945D01*
X170779500Y-95596059D01*
X170787908Y-95649146D01*
X170778953Y-95718440D01*
X170753116Y-95756225D01*
X169746162Y-96763181D01*
X169684839Y-96796666D01*
X169658481Y-96799500D01*
X167841518Y-96799500D01*
X167774479Y-96779815D01*
X167753837Y-96763181D01*
X167236818Y-96246162D01*
X167203333Y-96184839D01*
X167200499Y-96158481D01*
X167200499Y-95599998D01*
X167200498Y-95599981D01*
X167189999Y-95497203D01*
X167189998Y-95497200D01*
X167159096Y-95403945D01*
X167134814Y-95330666D01*
X167042712Y-95181344D01*
X166949049Y-95087681D01*
X166915564Y-95026358D01*
X166920548Y-94956666D01*
X166949049Y-94912319D01*
X167042712Y-94818656D01*
X167134814Y-94669334D01*
X167189999Y-94502797D01*
X167200500Y-94400009D01*
X167200499Y-93599992D01*
X167189999Y-93497203D01*
X167134814Y-93330666D01*
X167042712Y-93181344D01*
X166918656Y-93057288D01*
X166769334Y-92965186D01*
X166769332Y-92965185D01*
X166763187Y-92961395D01*
X166764290Y-92959605D01*
X166719649Y-92920290D01*
X166700500Y-92854091D01*
X166700500Y-92145908D01*
X166720185Y-92078869D01*
X166764271Y-92040363D01*
X166763187Y-92038605D01*
X166769332Y-92034814D01*
X166769334Y-92034814D01*
X166918656Y-91942712D01*
X167042712Y-91818656D01*
X167134814Y-91669334D01*
X167189999Y-91502797D01*
X167200500Y-91400009D01*
X167200499Y-90599992D01*
X167198518Y-90580604D01*
X167189999Y-90497203D01*
X167185252Y-90482877D01*
X167149837Y-90376001D01*
X167147435Y-90306176D01*
X167183166Y-90246134D01*
X167245687Y-90214941D01*
X167267543Y-90213000D01*
X182808422Y-90213000D01*
X183002826Y-90182209D01*
X183071978Y-90159740D01*
X183190026Y-90121384D01*
X183365405Y-90032024D01*
X183524646Y-89916328D01*
X184104155Y-89336819D01*
X184165478Y-89303334D01*
X184191836Y-89300500D01*
X184290504Y-89300500D01*
X184290511Y-89300500D01*
X184524514Y-89269693D01*
X184752493Y-89208606D01*
X184970549Y-89118284D01*
X185174950Y-89000273D01*
X185362199Y-88856592D01*
X185529092Y-88689699D01*
X185672773Y-88502450D01*
X185787955Y-88302947D01*
X185790780Y-88298056D01*
X185790780Y-88298055D01*
X185790784Y-88298049D01*
X185881106Y-88079993D01*
X185942193Y-87852014D01*
X185973000Y-87618011D01*
X185973000Y-87381989D01*
X185942193Y-87147986D01*
X185881106Y-86920007D01*
X185790784Y-86701951D01*
X185790782Y-86701948D01*
X185790780Y-86701943D01*
X185736130Y-86607288D01*
X185672773Y-86497550D01*
X185529092Y-86310301D01*
X185529087Y-86310295D01*
X185362204Y-86143412D01*
X185362197Y-86143406D01*
X185174954Y-85999730D01*
X185174953Y-85999729D01*
X185174950Y-85999727D01*
X185093457Y-85952677D01*
X184970556Y-85881719D01*
X184970545Y-85881714D01*
X184752493Y-85791394D01*
X184524510Y-85730306D01*
X184290520Y-85699501D01*
X184290517Y-85699500D01*
X184290511Y-85699500D01*
X184054489Y-85699500D01*
X184054483Y-85699500D01*
X184054479Y-85699501D01*
X183820489Y-85730306D01*
X183592506Y-85791394D01*
X183374454Y-85881714D01*
X183374443Y-85881719D01*
X183170045Y-85999730D01*
X182982802Y-86143406D01*
X182982795Y-86143412D01*
X182815912Y-86310295D01*
X182815906Y-86310302D01*
X182672230Y-86497545D01*
X182672227Y-86497549D01*
X182672227Y-86497550D01*
X182667712Y-86505370D01*
X182554219Y-86701943D01*
X182554214Y-86701954D01*
X182463894Y-86920006D01*
X182402806Y-87147989D01*
X182372001Y-87381979D01*
X182372000Y-87381995D01*
X182372000Y-87480664D01*
X182363355Y-87510104D01*
X182356832Y-87540091D01*
X182353077Y-87545106D01*
X182352315Y-87547703D01*
X182335681Y-87568345D01*
X182228345Y-87675681D01*
X182167022Y-87709166D01*
X182140664Y-87712000D01*
X167412000Y-87712000D01*
X167344961Y-87692315D01*
X167299206Y-87639511D01*
X167288000Y-87588000D01*
X167288000Y-86939083D01*
X167278512Y-86879179D01*
X167257209Y-86744673D01*
X167237445Y-86683848D01*
X167196384Y-86557475D01*
X167107024Y-86382095D01*
X166991328Y-86222854D01*
X166852146Y-86083672D01*
X162814646Y-82046172D01*
X162655405Y-81930476D01*
X162480030Y-81841117D01*
X162292826Y-81780290D01*
X162098422Y-81749500D01*
X162098417Y-81749500D01*
X140348416Y-81749500D01*
X140151583Y-81749500D01*
X140151578Y-81749500D01*
X139957172Y-81780291D01*
X139896348Y-81800053D01*
X139896348Y-81800054D01*
X139853103Y-81814105D01*
X139769970Y-81841117D01*
X139594594Y-81930476D01*
X139503741Y-81996485D01*
X139435354Y-82046172D01*
X139435352Y-82046174D01*
X139435351Y-82046174D01*
X137068343Y-84413181D01*
X137007020Y-84446666D01*
X136980662Y-84449500D01*
X134400000Y-84449500D01*
X134399983Y-84449501D01*
X134297204Y-84460000D01*
X134297201Y-84460001D01*
X134130669Y-84515185D01*
X134130664Y-84515187D01*
X133981343Y-84607290D01*
X133857290Y-84731343D01*
X133765187Y-84880664D01*
X133765186Y-84880667D01*
X133710001Y-85047204D01*
X133710001Y-85047205D01*
X133710000Y-85047205D01*
X133699500Y-85149985D01*
X120500500Y-85149985D01*
X120500500Y-80624500D01*
X120520185Y-80557461D01*
X120572989Y-80511706D01*
X120624500Y-80500500D01*
X189375500Y-80500500D01*
X189442539Y-80520185D01*
G37*
%TD.AperFunction*%
%TD*%
%TA.AperFunction,Conductor*%
%TO.N,/VIN*%
G36*
X155161274Y-90764724D02*
G01*
X155219944Y-90802666D01*
X155248788Y-90866304D01*
X155250000Y-90883601D01*
X155250000Y-98126000D01*
X155230315Y-98193039D01*
X155177511Y-98238794D01*
X155126000Y-98250000D01*
X151124000Y-98250000D01*
X151056961Y-98230315D01*
X151011206Y-98177511D01*
X151000000Y-98126000D01*
X151000000Y-91129500D01*
X151019685Y-91062461D01*
X151072489Y-91016706D01*
X151124000Y-91005500D01*
X152875990Y-91005500D01*
X152876000Y-91005500D01*
X152983456Y-90993947D01*
X153034967Y-90982741D01*
X153069197Y-90971347D01*
X153137497Y-90948616D01*
X153137501Y-90948613D01*
X153137504Y-90948613D01*
X153258543Y-90870825D01*
X153304749Y-90830786D01*
X153368305Y-90801762D01*
X153385952Y-90800500D01*
X154940686Y-90800500D01*
X154940694Y-90800500D01*
X154977569Y-90797598D01*
X155091405Y-90764525D01*
X155161274Y-90764724D01*
G37*
%TD.AperFunction*%
%TD*%
M02*
