%TF.GenerationSoftware,KiCad,Pcbnew,9.0.6*%
%TF.CreationDate,2026-01-20T00:14:11+05:30*%
%TF.ProjectId,buck_conv_lmr51430,6275636b-5f63-46f6-9e76-5f6c6d723531,rev?*%
%TF.SameCoordinates,Original*%
%TF.FileFunction,Legend,Top*%
%TF.FilePolarity,Positive*%
%FSLAX46Y46*%
G04 Gerber Fmt 4.6, Leading zero omitted, Abs format (unit mm)*
G04 Created by KiCad (PCBNEW 9.0.6) date 2026-01-20 00:14:11*
%MOMM*%
%LPD*%
G01*
G04 APERTURE LIST*
%ADD10C,0.100000*%
%ADD11C,0.150000*%
%ADD12C,0.120000*%
G04 APERTURE END LIST*
D10*
X120500000Y-99500000D02*
X189500000Y-99500000D01*
X189500000Y-80500000D02*
X120500000Y-80500000D01*
X120500000Y-80500000D02*
X120500000Y-84500000D01*
X120500000Y-95750000D02*
X120500000Y-99500000D01*
X189500000Y-99500000D02*
X189500000Y-95500000D01*
X189500000Y-84500000D02*
X189500000Y-80500000D01*
D11*
X151238095Y-86454819D02*
X151238095Y-87264342D01*
X151238095Y-87264342D02*
X151285714Y-87359580D01*
X151285714Y-87359580D02*
X151333333Y-87407200D01*
X151333333Y-87407200D02*
X151428571Y-87454819D01*
X151428571Y-87454819D02*
X151619047Y-87454819D01*
X151619047Y-87454819D02*
X151714285Y-87407200D01*
X151714285Y-87407200D02*
X151761904Y-87359580D01*
X151761904Y-87359580D02*
X151809523Y-87264342D01*
X151809523Y-87264342D02*
X151809523Y-86454819D01*
X152809523Y-87454819D02*
X152238095Y-87454819D01*
X152523809Y-87454819D02*
X152523809Y-86454819D01*
X152523809Y-86454819D02*
X152428571Y-86597676D01*
X152428571Y-86597676D02*
X152333333Y-86692914D01*
X152333333Y-86692914D02*
X152238095Y-86740533D01*
X171833333Y-87109580D02*
X171785714Y-87157200D01*
X171785714Y-87157200D02*
X171642857Y-87204819D01*
X171642857Y-87204819D02*
X171547619Y-87204819D01*
X171547619Y-87204819D02*
X171404762Y-87157200D01*
X171404762Y-87157200D02*
X171309524Y-87061961D01*
X171309524Y-87061961D02*
X171261905Y-86966723D01*
X171261905Y-86966723D02*
X171214286Y-86776247D01*
X171214286Y-86776247D02*
X171214286Y-86633390D01*
X171214286Y-86633390D02*
X171261905Y-86442914D01*
X171261905Y-86442914D02*
X171309524Y-86347676D01*
X171309524Y-86347676D02*
X171404762Y-86252438D01*
X171404762Y-86252438D02*
X171547619Y-86204819D01*
X171547619Y-86204819D02*
X171642857Y-86204819D01*
X171642857Y-86204819D02*
X171785714Y-86252438D01*
X171785714Y-86252438D02*
X171833333Y-86300057D01*
X172690476Y-86538152D02*
X172690476Y-87204819D01*
X172452381Y-86157200D02*
X172214286Y-86871485D01*
X172214286Y-86871485D02*
X172833333Y-86871485D01*
X149333333Y-94359580D02*
X149285714Y-94407200D01*
X149285714Y-94407200D02*
X149142857Y-94454819D01*
X149142857Y-94454819D02*
X149047619Y-94454819D01*
X149047619Y-94454819D02*
X148904762Y-94407200D01*
X148904762Y-94407200D02*
X148809524Y-94311961D01*
X148809524Y-94311961D02*
X148761905Y-94216723D01*
X148761905Y-94216723D02*
X148714286Y-94026247D01*
X148714286Y-94026247D02*
X148714286Y-93883390D01*
X148714286Y-93883390D02*
X148761905Y-93692914D01*
X148761905Y-93692914D02*
X148809524Y-93597676D01*
X148809524Y-93597676D02*
X148904762Y-93502438D01*
X148904762Y-93502438D02*
X149047619Y-93454819D01*
X149047619Y-93454819D02*
X149142857Y-93454819D01*
X149142857Y-93454819D02*
X149285714Y-93502438D01*
X149285714Y-93502438D02*
X149333333Y-93550057D01*
X149714286Y-93550057D02*
X149761905Y-93502438D01*
X149761905Y-93502438D02*
X149857143Y-93454819D01*
X149857143Y-93454819D02*
X150095238Y-93454819D01*
X150095238Y-93454819D02*
X150190476Y-93502438D01*
X150190476Y-93502438D02*
X150238095Y-93550057D01*
X150238095Y-93550057D02*
X150285714Y-93645295D01*
X150285714Y-93645295D02*
X150285714Y-93740533D01*
X150285714Y-93740533D02*
X150238095Y-93883390D01*
X150238095Y-93883390D02*
X149666667Y-94454819D01*
X149666667Y-94454819D02*
X150285714Y-94454819D01*
X176904761Y-97954819D02*
X176571428Y-97478628D01*
X176333333Y-97954819D02*
X176333333Y-96954819D01*
X176333333Y-96954819D02*
X176714285Y-96954819D01*
X176714285Y-96954819D02*
X176809523Y-97002438D01*
X176809523Y-97002438D02*
X176857142Y-97050057D01*
X176857142Y-97050057D02*
X176904761Y-97145295D01*
X176904761Y-97145295D02*
X176904761Y-97288152D01*
X176904761Y-97288152D02*
X176857142Y-97383390D01*
X176857142Y-97383390D02*
X176809523Y-97431009D01*
X176809523Y-97431009D02*
X176714285Y-97478628D01*
X176714285Y-97478628D02*
X176333333Y-97478628D01*
X177190476Y-96954819D02*
X177523809Y-97954819D01*
X177523809Y-97954819D02*
X177857142Y-96954819D01*
X178714285Y-97954819D02*
X178142857Y-97954819D01*
X178428571Y-97954819D02*
X178428571Y-96954819D01*
X178428571Y-96954819D02*
X178333333Y-97097676D01*
X178333333Y-97097676D02*
X178238095Y-97192914D01*
X178238095Y-97192914D02*
X178142857Y-97240533D01*
X125416666Y-82954819D02*
X125416666Y-83669104D01*
X125416666Y-83669104D02*
X125369047Y-83811961D01*
X125369047Y-83811961D02*
X125273809Y-83907200D01*
X125273809Y-83907200D02*
X125130952Y-83954819D01*
X125130952Y-83954819D02*
X125035714Y-83954819D01*
X126416666Y-83954819D02*
X125845238Y-83954819D01*
X126130952Y-83954819D02*
X126130952Y-82954819D01*
X126130952Y-82954819D02*
X126035714Y-83097676D01*
X126035714Y-83097676D02*
X125940476Y-83192914D01*
X125940476Y-83192914D02*
X125845238Y-83240533D01*
X159833333Y-83359580D02*
X159785714Y-83407200D01*
X159785714Y-83407200D02*
X159642857Y-83454819D01*
X159642857Y-83454819D02*
X159547619Y-83454819D01*
X159547619Y-83454819D02*
X159404762Y-83407200D01*
X159404762Y-83407200D02*
X159309524Y-83311961D01*
X159309524Y-83311961D02*
X159261905Y-83216723D01*
X159261905Y-83216723D02*
X159214286Y-83026247D01*
X159214286Y-83026247D02*
X159214286Y-82883390D01*
X159214286Y-82883390D02*
X159261905Y-82692914D01*
X159261905Y-82692914D02*
X159309524Y-82597676D01*
X159309524Y-82597676D02*
X159404762Y-82502438D01*
X159404762Y-82502438D02*
X159547619Y-82454819D01*
X159547619Y-82454819D02*
X159642857Y-82454819D01*
X159642857Y-82454819D02*
X159785714Y-82502438D01*
X159785714Y-82502438D02*
X159833333Y-82550057D01*
X160166667Y-82454819D02*
X160785714Y-82454819D01*
X160785714Y-82454819D02*
X160452381Y-82835771D01*
X160452381Y-82835771D02*
X160595238Y-82835771D01*
X160595238Y-82835771D02*
X160690476Y-82883390D01*
X160690476Y-82883390D02*
X160738095Y-82931009D01*
X160738095Y-82931009D02*
X160785714Y-83026247D01*
X160785714Y-83026247D02*
X160785714Y-83264342D01*
X160785714Y-83264342D02*
X160738095Y-83359580D01*
X160738095Y-83359580D02*
X160690476Y-83407200D01*
X160690476Y-83407200D02*
X160595238Y-83454819D01*
X160595238Y-83454819D02*
X160309524Y-83454819D01*
X160309524Y-83454819D02*
X160214286Y-83407200D01*
X160214286Y-83407200D02*
X160166667Y-83359580D01*
X163333333Y-95454819D02*
X163000000Y-94978628D01*
X162761905Y-95454819D02*
X162761905Y-94454819D01*
X162761905Y-94454819D02*
X163142857Y-94454819D01*
X163142857Y-94454819D02*
X163238095Y-94502438D01*
X163238095Y-94502438D02*
X163285714Y-94550057D01*
X163285714Y-94550057D02*
X163333333Y-94645295D01*
X163333333Y-94645295D02*
X163333333Y-94788152D01*
X163333333Y-94788152D02*
X163285714Y-94883390D01*
X163285714Y-94883390D02*
X163238095Y-94931009D01*
X163238095Y-94931009D02*
X163142857Y-94978628D01*
X163142857Y-94978628D02*
X162761905Y-94978628D01*
X163714286Y-94550057D02*
X163761905Y-94502438D01*
X163761905Y-94502438D02*
X163857143Y-94454819D01*
X163857143Y-94454819D02*
X164095238Y-94454819D01*
X164095238Y-94454819D02*
X164190476Y-94502438D01*
X164190476Y-94502438D02*
X164238095Y-94550057D01*
X164238095Y-94550057D02*
X164285714Y-94645295D01*
X164285714Y-94645295D02*
X164285714Y-94740533D01*
X164285714Y-94740533D02*
X164238095Y-94883390D01*
X164238095Y-94883390D02*
X163666667Y-95454819D01*
X163666667Y-95454819D02*
X164285714Y-95454819D01*
X174833333Y-87109580D02*
X174785714Y-87157200D01*
X174785714Y-87157200D02*
X174642857Y-87204819D01*
X174642857Y-87204819D02*
X174547619Y-87204819D01*
X174547619Y-87204819D02*
X174404762Y-87157200D01*
X174404762Y-87157200D02*
X174309524Y-87061961D01*
X174309524Y-87061961D02*
X174261905Y-86966723D01*
X174261905Y-86966723D02*
X174214286Y-86776247D01*
X174214286Y-86776247D02*
X174214286Y-86633390D01*
X174214286Y-86633390D02*
X174261905Y-86442914D01*
X174261905Y-86442914D02*
X174309524Y-86347676D01*
X174309524Y-86347676D02*
X174404762Y-86252438D01*
X174404762Y-86252438D02*
X174547619Y-86204819D01*
X174547619Y-86204819D02*
X174642857Y-86204819D01*
X174642857Y-86204819D02*
X174785714Y-86252438D01*
X174785714Y-86252438D02*
X174833333Y-86300057D01*
X175690476Y-86204819D02*
X175500000Y-86204819D01*
X175500000Y-86204819D02*
X175404762Y-86252438D01*
X175404762Y-86252438D02*
X175357143Y-86300057D01*
X175357143Y-86300057D02*
X175261905Y-86442914D01*
X175261905Y-86442914D02*
X175214286Y-86633390D01*
X175214286Y-86633390D02*
X175214286Y-87014342D01*
X175214286Y-87014342D02*
X175261905Y-87109580D01*
X175261905Y-87109580D02*
X175309524Y-87157200D01*
X175309524Y-87157200D02*
X175404762Y-87204819D01*
X175404762Y-87204819D02*
X175595238Y-87204819D01*
X175595238Y-87204819D02*
X175690476Y-87157200D01*
X175690476Y-87157200D02*
X175738095Y-87109580D01*
X175738095Y-87109580D02*
X175785714Y-87014342D01*
X175785714Y-87014342D02*
X175785714Y-86776247D01*
X175785714Y-86776247D02*
X175738095Y-86681009D01*
X175738095Y-86681009D02*
X175690476Y-86633390D01*
X175690476Y-86633390D02*
X175595238Y-86585771D01*
X175595238Y-86585771D02*
X175404762Y-86585771D01*
X175404762Y-86585771D02*
X175309524Y-86633390D01*
X175309524Y-86633390D02*
X175261905Y-86681009D01*
X175261905Y-86681009D02*
X175214286Y-86776247D01*
X152083333Y-97359580D02*
X152035714Y-97407200D01*
X152035714Y-97407200D02*
X151892857Y-97454819D01*
X151892857Y-97454819D02*
X151797619Y-97454819D01*
X151797619Y-97454819D02*
X151654762Y-97407200D01*
X151654762Y-97407200D02*
X151559524Y-97311961D01*
X151559524Y-97311961D02*
X151511905Y-97216723D01*
X151511905Y-97216723D02*
X151464286Y-97026247D01*
X151464286Y-97026247D02*
X151464286Y-96883390D01*
X151464286Y-96883390D02*
X151511905Y-96692914D01*
X151511905Y-96692914D02*
X151559524Y-96597676D01*
X151559524Y-96597676D02*
X151654762Y-96502438D01*
X151654762Y-96502438D02*
X151797619Y-96454819D01*
X151797619Y-96454819D02*
X151892857Y-96454819D01*
X151892857Y-96454819D02*
X152035714Y-96502438D01*
X152035714Y-96502438D02*
X152083333Y-96550057D01*
X153035714Y-97454819D02*
X152464286Y-97454819D01*
X152750000Y-97454819D02*
X152750000Y-96454819D01*
X152750000Y-96454819D02*
X152654762Y-96597676D01*
X152654762Y-96597676D02*
X152559524Y-96692914D01*
X152559524Y-96692914D02*
X152464286Y-96740533D01*
X165833333Y-87204819D02*
X165500000Y-86728628D01*
X165261905Y-87204819D02*
X165261905Y-86204819D01*
X165261905Y-86204819D02*
X165642857Y-86204819D01*
X165642857Y-86204819D02*
X165738095Y-86252438D01*
X165738095Y-86252438D02*
X165785714Y-86300057D01*
X165785714Y-86300057D02*
X165833333Y-86395295D01*
X165833333Y-86395295D02*
X165833333Y-86538152D01*
X165833333Y-86538152D02*
X165785714Y-86633390D01*
X165785714Y-86633390D02*
X165738095Y-86681009D01*
X165738095Y-86681009D02*
X165642857Y-86728628D01*
X165642857Y-86728628D02*
X165261905Y-86728628D01*
X166785714Y-87204819D02*
X166214286Y-87204819D01*
X166500000Y-87204819D02*
X166500000Y-86204819D01*
X166500000Y-86204819D02*
X166404762Y-86347676D01*
X166404762Y-86347676D02*
X166309524Y-86442914D01*
X166309524Y-86442914D02*
X166214286Y-86490533D01*
X140833333Y-93954819D02*
X140357143Y-93954819D01*
X140357143Y-93954819D02*
X140357143Y-92954819D01*
X141690476Y-93954819D02*
X141119048Y-93954819D01*
X141404762Y-93954819D02*
X141404762Y-92954819D01*
X141404762Y-92954819D02*
X141309524Y-93097676D01*
X141309524Y-93097676D02*
X141214286Y-93192914D01*
X141214286Y-93192914D02*
X141119048Y-93240533D01*
X168833333Y-87109580D02*
X168785714Y-87157200D01*
X168785714Y-87157200D02*
X168642857Y-87204819D01*
X168642857Y-87204819D02*
X168547619Y-87204819D01*
X168547619Y-87204819D02*
X168404762Y-87157200D01*
X168404762Y-87157200D02*
X168309524Y-87061961D01*
X168309524Y-87061961D02*
X168261905Y-86966723D01*
X168261905Y-86966723D02*
X168214286Y-86776247D01*
X168214286Y-86776247D02*
X168214286Y-86633390D01*
X168214286Y-86633390D02*
X168261905Y-86442914D01*
X168261905Y-86442914D02*
X168309524Y-86347676D01*
X168309524Y-86347676D02*
X168404762Y-86252438D01*
X168404762Y-86252438D02*
X168547619Y-86204819D01*
X168547619Y-86204819D02*
X168642857Y-86204819D01*
X168642857Y-86204819D02*
X168785714Y-86252438D01*
X168785714Y-86252438D02*
X168833333Y-86300057D01*
X169738095Y-86204819D02*
X169261905Y-86204819D01*
X169261905Y-86204819D02*
X169214286Y-86681009D01*
X169214286Y-86681009D02*
X169261905Y-86633390D01*
X169261905Y-86633390D02*
X169357143Y-86585771D01*
X169357143Y-86585771D02*
X169595238Y-86585771D01*
X169595238Y-86585771D02*
X169690476Y-86633390D01*
X169690476Y-86633390D02*
X169738095Y-86681009D01*
X169738095Y-86681009D02*
X169785714Y-86776247D01*
X169785714Y-86776247D02*
X169785714Y-87014342D01*
X169785714Y-87014342D02*
X169738095Y-87109580D01*
X169738095Y-87109580D02*
X169690476Y-87157200D01*
X169690476Y-87157200D02*
X169595238Y-87204819D01*
X169595238Y-87204819D02*
X169357143Y-87204819D01*
X169357143Y-87204819D02*
X169261905Y-87157200D01*
X169261905Y-87157200D02*
X169214286Y-87109580D01*
X183916666Y-83204819D02*
X183916666Y-83919104D01*
X183916666Y-83919104D02*
X183869047Y-84061961D01*
X183869047Y-84061961D02*
X183773809Y-84157200D01*
X183773809Y-84157200D02*
X183630952Y-84204819D01*
X183630952Y-84204819D02*
X183535714Y-84204819D01*
X184345238Y-83300057D02*
X184392857Y-83252438D01*
X184392857Y-83252438D02*
X184488095Y-83204819D01*
X184488095Y-83204819D02*
X184726190Y-83204819D01*
X184726190Y-83204819D02*
X184821428Y-83252438D01*
X184821428Y-83252438D02*
X184869047Y-83300057D01*
X184869047Y-83300057D02*
X184916666Y-83395295D01*
X184916666Y-83395295D02*
X184916666Y-83490533D01*
X184916666Y-83490533D02*
X184869047Y-83633390D01*
X184869047Y-83633390D02*
X184297619Y-84204819D01*
X184297619Y-84204819D02*
X184916666Y-84204819D01*
D12*
%TO.C,U1*%
X154590000Y-88440000D02*
X156410000Y-88440000D01*
X154590000Y-88490000D02*
X154590000Y-88440000D01*
X154590000Y-91560000D02*
X154590000Y-91510000D01*
X156410000Y-88440000D02*
X156410000Y-88490000D01*
X156410000Y-91510000D02*
X156410000Y-91560000D01*
X156410000Y-91560000D02*
X154590000Y-91560000D01*
X154050000Y-88490000D02*
X153810000Y-88160000D01*
X154290000Y-88160000D01*
X154050000Y-88490000D01*
G36*
X154050000Y-88490000D02*
G01*
X153810000Y-88160000D01*
X154290000Y-88160000D01*
X154050000Y-88490000D01*
G37*
%TO.C,C4*%
X171265000Y-89738748D02*
X171265000Y-90261252D01*
X172735000Y-89738748D02*
X172735000Y-90261252D01*
%TO.C,C2*%
X155238748Y-93265000D02*
X155761252Y-93265000D01*
X155238748Y-94735000D02*
X155761252Y-94735000D01*
%TO.C,RV1*%
X168535000Y-93230000D02*
X175465000Y-93230000D01*
X168535000Y-95283000D02*
X168535000Y-93230000D01*
X168535000Y-97950000D02*
X168535000Y-95717000D01*
X175465000Y-93230000D02*
X175465000Y-95283000D01*
X175465000Y-95717000D02*
X175465000Y-97950000D01*
X175465000Y-97950000D02*
X168535000Y-97950000D01*
%TO.C,J1*%
X121107500Y-84880000D02*
X131147500Y-84880000D01*
X121107500Y-87200000D02*
X121107500Y-84880000D01*
X121107500Y-95120000D02*
X121107500Y-87800000D01*
X121727500Y-84880000D02*
X121727500Y-95120000D01*
X123227500Y-84880000D02*
X123227500Y-95120000D01*
X128127500Y-84880000D02*
X128127500Y-95120000D01*
X131147500Y-84880000D02*
X131147500Y-95120000D01*
X131147500Y-95120000D02*
X121107500Y-95120000D01*
X121107500Y-87500000D02*
X120497500Y-87940000D01*
X120497500Y-87060000D01*
X121107500Y-87500000D01*
G36*
X121107500Y-87500000D02*
G01*
X120497500Y-87940000D01*
X120497500Y-87060000D01*
X121107500Y-87500000D01*
G37*
%TO.C,C3*%
X159265000Y-86761252D02*
X159265000Y-86238748D01*
X160735000Y-86761252D02*
X160735000Y-86238748D01*
%TO.C,R2*%
X165265000Y-94772936D02*
X165265000Y-95227064D01*
X166735000Y-94772936D02*
X166735000Y-95227064D01*
%TO.C,C6*%
X174265000Y-89738748D02*
X174265000Y-90261252D01*
X175735000Y-89738748D02*
X175735000Y-90261252D01*
%TO.C,C1*%
X155238748Y-96265000D02*
X155761252Y-96265000D01*
X155238748Y-97735000D02*
X155761252Y-97735000D01*
%TO.C,R1*%
X165265000Y-89772936D02*
X165265000Y-90227064D01*
X166735000Y-89772936D02*
X166735000Y-90227064D01*
%TO.C,L1*%
X135490000Y-81890000D02*
X146510000Y-81890000D01*
X135490000Y-84690000D02*
X135490000Y-81890000D01*
X135490000Y-92110000D02*
X135490000Y-89310000D01*
X146510000Y-81890000D02*
X146510000Y-84690000D01*
X146510000Y-89310000D02*
X146510000Y-92110000D01*
X146510000Y-92110000D02*
X135490000Y-92110000D01*
%TO.C,C5*%
X168255000Y-89738748D02*
X168255000Y-90261252D01*
X169725000Y-89738748D02*
X169725000Y-90261252D01*
%TO.C,J2*%
X178852500Y-84880000D02*
X188892500Y-84880000D01*
X178852500Y-95120000D02*
X178852500Y-84880000D01*
X181872500Y-95120000D02*
X181872500Y-84880000D01*
X186772500Y-95120000D02*
X186772500Y-84880000D01*
X188272500Y-95120000D02*
X188272500Y-84880000D01*
X188892500Y-84880000D02*
X188892500Y-92200000D01*
X188892500Y-92800000D02*
X188892500Y-95120000D01*
X188892500Y-95120000D02*
X178852500Y-95120000D01*
X189502500Y-92940000D02*
X188892500Y-92500000D01*
X189502500Y-92060000D01*
X189502500Y-92940000D01*
G36*
X189502500Y-92940000D02*
G01*
X188892500Y-92500000D01*
X189502500Y-92060000D01*
X189502500Y-92940000D01*
G37*
%TD*%
M02*
