%TF.GenerationSoftware,KiCad,Pcbnew,9.0.6*%
%TF.CreationDate,2026-01-20T00:14:25+05:30*%
%TF.ProjectId,buck_conv_lmr51430,6275636b-5f63-46f6-9e76-5f6c6d723531,rev?*%
%TF.SameCoordinates,Original*%
%TF.FileFunction,Plated,1,2,PTH,Drill*%
%TF.FilePolarity,Positive*%
%FSLAX46Y46*%
G04 Gerber Fmt 4.6, Leading zero omitted, Abs format (unit mm)*
G04 Created by KiCad (PCBNEW 9.0.6) date 2026-01-20 00:14:25*
%MOMM*%
%LPD*%
G01*
G04 APERTURE LIST*
%TA.AperFunction,ViaDrill*%
%ADD10C,0.300000*%
%TD*%
%TA.AperFunction,ComponentDrill*%
%ADD11C,0.800000*%
%TD*%
%TA.AperFunction,ComponentDrill*%
%ADD12C,1.300000*%
%TD*%
G04 APERTURE END LIST*
D10*
X122500000Y-82500000D03*
X122500000Y-85000000D03*
X122500000Y-87500000D03*
X122500000Y-90000000D03*
X122500000Y-92500000D03*
X122500000Y-95000000D03*
X122500000Y-97500000D03*
X125000000Y-82500000D03*
X125000000Y-97500000D03*
X127500000Y-82500000D03*
X127500000Y-97500000D03*
X130000000Y-82500000D03*
X130000000Y-85000000D03*
X130000000Y-87500000D03*
X130000000Y-95000000D03*
X130000000Y-97500000D03*
X132500000Y-82500000D03*
X132500000Y-85000000D03*
X132500000Y-87500000D03*
X132500000Y-90000000D03*
X132500000Y-95000000D03*
X132500000Y-97500000D03*
X135000000Y-82500000D03*
X135000000Y-95000000D03*
X135000000Y-97500000D03*
X137500000Y-95000000D03*
X137500000Y-97500000D03*
X140000000Y-87500000D03*
X140000000Y-90000000D03*
X140000000Y-95000000D03*
X140000000Y-97500000D03*
X142500000Y-87500000D03*
X142500000Y-90000000D03*
X142500000Y-95000000D03*
X142500000Y-97500000D03*
X145000000Y-95000000D03*
X145000000Y-97500000D03*
X147500000Y-95000000D03*
X147500000Y-97500000D03*
X150500000Y-89000000D03*
X150500000Y-90000000D03*
X151500000Y-89000000D03*
X151500000Y-90000000D03*
X151500000Y-92000000D03*
X151500000Y-93000000D03*
X151500000Y-94000000D03*
X152500000Y-89000000D03*
X152500000Y-90000000D03*
X152500000Y-92000000D03*
X152500000Y-93000000D03*
X152500000Y-94000000D03*
X154500000Y-86500000D03*
X154500000Y-87500000D03*
X155500000Y-86500000D03*
X155500000Y-87500000D03*
X156500000Y-86500000D03*
X156500000Y-87500000D03*
X158250000Y-86500000D03*
X158500000Y-92500000D03*
X158500000Y-93500000D03*
X158500000Y-94500000D03*
X158500000Y-96500000D03*
X158500000Y-97500000D03*
X159000000Y-90000000D03*
X159500000Y-92500000D03*
X159500000Y-93500000D03*
X159500000Y-94500000D03*
X162000000Y-87500000D03*
X162000000Y-88500000D03*
X162000000Y-89500000D03*
X162500000Y-97500000D03*
X163000000Y-87500000D03*
X163000000Y-88500000D03*
X163000000Y-89500000D03*
X165000000Y-82500000D03*
X165000000Y-97500000D03*
X167500000Y-82500000D03*
X167500000Y-85000000D03*
X168500000Y-92500000D03*
X169500000Y-92500000D03*
X170000000Y-82500000D03*
X170000000Y-85000000D03*
X171500000Y-92500000D03*
X172500000Y-82500000D03*
X172500000Y-85000000D03*
X172500000Y-92500000D03*
X174500000Y-92500000D03*
X175000000Y-82500000D03*
X175000000Y-85000000D03*
X175500000Y-92500000D03*
X177500000Y-82500000D03*
X177500000Y-85000000D03*
X177500000Y-92500000D03*
X180000000Y-82500000D03*
X180000000Y-85000000D03*
X180000000Y-92500000D03*
X182500000Y-82500000D03*
X182500000Y-85000000D03*
X182500000Y-97500000D03*
X185000000Y-82500000D03*
X185000000Y-97500000D03*
X187500000Y-82500000D03*
X187500000Y-85000000D03*
X187500000Y-87500000D03*
X187500000Y-90000000D03*
X187500000Y-92500000D03*
X187500000Y-95000000D03*
X187500000Y-97500000D03*
D11*
%TO.C,RV1*%
X169460000Y-95500000D03*
X172000000Y-95500000D03*
X174540000Y-95500000D03*
D12*
%TO.C,J1*%
X125827500Y-87500000D03*
X125827500Y-92500000D03*
%TO.C,J2*%
X184172500Y-87500000D03*
X184172500Y-92500000D03*
M02*
