%TF.GenerationSoftware,KiCad,Pcbnew,9.0.6*%
%TF.CreationDate,2026-01-20T00:14:11+05:30*%
%TF.ProjectId,buck_conv_lmr51430,6275636b-5f63-46f6-9e76-5f6c6d723531,rev?*%
%TF.SameCoordinates,Original*%
%TF.FileFunction,Copper,L2,Bot*%
%TF.FilePolarity,Positive*%
%FSLAX46Y46*%
G04 Gerber Fmt 4.6, Leading zero omitted, Abs format (unit mm)*
G04 Created by KiCad (PCBNEW 9.0.6) date 2026-01-20 00:14:11*
%MOMM*%
%LPD*%
G01*
G04 APERTURE LIST*
G04 Aperture macros list*
%AMRoundRect*
0 Rectangle with rounded corners*
0 $1 Rounding radius*
0 $2 $3 $4 $5 $6 $7 $8 $9 X,Y pos of 4 corners*
0 Add a 4 corners polygon primitive as box body*
4,1,4,$2,$3,$4,$5,$6,$7,$8,$9,$2,$3,0*
0 Add four circle primitives for the rounded corners*
1,1,$1+$1,$2,$3*
1,1,$1+$1,$4,$5*
1,1,$1+$1,$6,$7*
1,1,$1+$1,$8,$9*
0 Add four rect primitives between the rounded corners*
20,1,$1+$1,$2,$3,$4,$5,0*
20,1,$1+$1,$4,$5,$6,$7,0*
20,1,$1+$1,$6,$7,$8,$9,0*
20,1,$1+$1,$8,$9,$2,$3,0*%
G04 Aperture macros list end*
%TA.AperFunction,ComponentPad*%
%ADD10C,1.440000*%
%TD*%
%TA.AperFunction,ComponentPad*%
%ADD11RoundRect,0.250000X-1.050000X1.050000X-1.050000X-1.050000X1.050000X-1.050000X1.050000X1.050000X0*%
%TD*%
%TA.AperFunction,ComponentPad*%
%ADD12C,2.600000*%
%TD*%
%TA.AperFunction,ComponentPad*%
%ADD13RoundRect,0.250000X1.050000X-1.050000X1.050000X1.050000X-1.050000X1.050000X-1.050000X-1.050000X0*%
%TD*%
%TA.AperFunction,ViaPad*%
%ADD14C,0.600000*%
%TD*%
%TA.AperFunction,Conductor*%
%ADD15C,1.500000*%
%TD*%
%TA.AperFunction,Conductor*%
%ADD16C,0.400000*%
%TD*%
G04 APERTURE END LIST*
D10*
%TO.P,RV1,1,1*%
%TO.N,unconnected-(RV1-Pad1)*%
X174540000Y-95500000D03*
%TO.P,RV1,2,2*%
%TO.N,Net-(R2-Pad2)*%
X172000000Y-95500000D03*
%TO.P,RV1,3,3*%
%TO.N,GND*%
X169460000Y-95500000D03*
%TD*%
D11*
%TO.P,J1,1,Pin_1*%
%TO.N,/VIN*%
X125827500Y-87500000D03*
D12*
%TO.P,J1,2,Pin_2*%
%TO.N,GND*%
X125827500Y-92500000D03*
%TD*%
D13*
%TO.P,J2,1,Pin_1*%
%TO.N,GND*%
X184172500Y-92500000D03*
D12*
%TO.P,J2,2,Pin_2*%
%TO.N,/VOUT*%
X184172500Y-87500000D03*
%TD*%
D14*
%TO.N,GND*%
X187500000Y-97500000D03*
X130000000Y-87500000D03*
X187500000Y-90000000D03*
X127500000Y-97500000D03*
X154500000Y-86500000D03*
X158500000Y-94500000D03*
X175500000Y-92500000D03*
X174500000Y-92500000D03*
X140000000Y-95000000D03*
X155500000Y-86500000D03*
X187500000Y-85000000D03*
X130000000Y-95000000D03*
X187500000Y-82500000D03*
X163000000Y-89500000D03*
X159500000Y-94500000D03*
X172500000Y-82500000D03*
X175000000Y-85000000D03*
X122500000Y-97500000D03*
X137500000Y-97500000D03*
X122500000Y-87500000D03*
X140000000Y-87500000D03*
X172500000Y-85000000D03*
X156500000Y-86500000D03*
X125000000Y-97500000D03*
X182500000Y-82500000D03*
X132500000Y-82500000D03*
X145000000Y-97500000D03*
X122500000Y-92500000D03*
X162500000Y-97500000D03*
X162000000Y-87500000D03*
X130000000Y-82500000D03*
X132500000Y-90000000D03*
X140000000Y-90000000D03*
X165000000Y-97500000D03*
X180000000Y-92500000D03*
X122500000Y-85000000D03*
X180000000Y-85000000D03*
X187500000Y-95000000D03*
X159500000Y-93500000D03*
X158500000Y-96500000D03*
X142500000Y-95000000D03*
X155500000Y-87500000D03*
X142500000Y-90000000D03*
X156500000Y-87500000D03*
X167500000Y-85000000D03*
X158500000Y-97500000D03*
X165000000Y-82500000D03*
X142500000Y-87500000D03*
X130000000Y-97500000D03*
X185000000Y-82500000D03*
X177500000Y-82500000D03*
X158500000Y-92500000D03*
X182500000Y-85000000D03*
X145000000Y-95000000D03*
X170000000Y-85000000D03*
X168500000Y-92500000D03*
X177500000Y-92500000D03*
X158500000Y-93500000D03*
X140000000Y-97500000D03*
X132500000Y-97500000D03*
X169500000Y-92500000D03*
X130000000Y-85000000D03*
X185000000Y-97500000D03*
X170000000Y-82500000D03*
X175000000Y-82500000D03*
X182500000Y-97500000D03*
X187500000Y-92500000D03*
X135000000Y-97500000D03*
X135000000Y-82500000D03*
X135000000Y-95000000D03*
X147500000Y-97500000D03*
X171500000Y-92500000D03*
X177500000Y-85000000D03*
X122500000Y-90000000D03*
X180000000Y-82500000D03*
X132500000Y-87500000D03*
X127500000Y-82500000D03*
X163000000Y-87500000D03*
X162000000Y-88500000D03*
X122500000Y-95000000D03*
X132500000Y-95000000D03*
X142500000Y-97500000D03*
X122500000Y-82500000D03*
X125000000Y-82500000D03*
X159500000Y-92500000D03*
X172500000Y-92500000D03*
X132500000Y-85000000D03*
X187500000Y-87500000D03*
X167500000Y-82500000D03*
X162000000Y-89500000D03*
X137500000Y-95000000D03*
X163000000Y-88500000D03*
X154500000Y-87500000D03*
X147500000Y-95000000D03*
%TO.N,/VIN*%
X152500000Y-92000000D03*
X152500000Y-94000000D03*
X159000000Y-90000000D03*
X151500000Y-94000000D03*
X152500000Y-93000000D03*
X151500000Y-92000000D03*
X151500000Y-93000000D03*
%TO.N,/SW*%
X152500000Y-89000000D03*
X150500000Y-90000000D03*
X151500000Y-90000000D03*
X150500000Y-89000000D03*
X158250000Y-86500000D03*
X151500000Y-89000000D03*
X152500000Y-90000000D03*
%TD*%
D15*
%TO.N,/VIN*%
X131327500Y-93000000D02*
X125827500Y-87500000D01*
D16*
X159000000Y-90000000D02*
X157000000Y-92000000D01*
D15*
X151500000Y-93000000D02*
X131327500Y-93000000D01*
D16*
X157000000Y-92000000D02*
X152500000Y-92000000D01*
%TO.N,/SW*%
X157000000Y-89000000D02*
X152500000Y-89000000D01*
X158250000Y-86500000D02*
X158250000Y-87750000D01*
X158250000Y-87750000D02*
X157000000Y-89000000D01*
%TD*%
%TA.AperFunction,Conductor*%
%TO.N,GND*%
G36*
X189442539Y-80520185D02*
G01*
X189488294Y-80572989D01*
X189499500Y-80624500D01*
X189499500Y-99375500D01*
X189479815Y-99442539D01*
X189427011Y-99488294D01*
X189375500Y-99499500D01*
X120624500Y-99499500D01*
X120557461Y-99479815D01*
X120511706Y-99427011D01*
X120500500Y-99375500D01*
X120500500Y-86399983D01*
X124027000Y-86399983D01*
X124027000Y-88600001D01*
X124027001Y-88600018D01*
X124037500Y-88702796D01*
X124037501Y-88702799D01*
X124058609Y-88766498D01*
X124092686Y-88869334D01*
X124184788Y-89018656D01*
X124308844Y-89142712D01*
X124458166Y-89234814D01*
X124624703Y-89289999D01*
X124727491Y-89300500D01*
X125808163Y-89300499D01*
X125875202Y-89320184D01*
X125895844Y-89336818D01*
X130512855Y-93953829D01*
X130672095Y-94069524D01*
X130754954Y-94111742D01*
X130847469Y-94158882D01*
X130847471Y-94158882D01*
X130847474Y-94158884D01*
X130947818Y-94191487D01*
X131034673Y-94219709D01*
X131229078Y-94250500D01*
X131229083Y-94250500D01*
X131229084Y-94250500D01*
X131425917Y-94250500D01*
X150370500Y-94250500D01*
X150437539Y-94270185D01*
X150483294Y-94322989D01*
X150494500Y-94374500D01*
X150494500Y-98126000D01*
X150494501Y-98126009D01*
X150506052Y-98233450D01*
X150506054Y-98233462D01*
X150517260Y-98284972D01*
X150551383Y-98387497D01*
X150551386Y-98387503D01*
X150629171Y-98508537D01*
X150629179Y-98508548D01*
X150674923Y-98561340D01*
X150674926Y-98561343D01*
X150674930Y-98561347D01*
X150783664Y-98655567D01*
X150783667Y-98655568D01*
X150783668Y-98655569D01*
X150877925Y-98698616D01*
X150914541Y-98715338D01*
X150981580Y-98735023D01*
X150981584Y-98735024D01*
X151124000Y-98755500D01*
X151124003Y-98755500D01*
X155125990Y-98755500D01*
X155126000Y-98755500D01*
X155233456Y-98743947D01*
X155284967Y-98732741D01*
X155319197Y-98721347D01*
X155387497Y-98698616D01*
X155387501Y-98698613D01*
X155387504Y-98698613D01*
X155508543Y-98620825D01*
X155561347Y-98575070D01*
X155655567Y-98466336D01*
X155715338Y-98335459D01*
X155735023Y-98268420D01*
X155735024Y-98268416D01*
X155755500Y-98126000D01*
X155755500Y-95403945D01*
X170779500Y-95403945D01*
X170779500Y-95596054D01*
X170809553Y-95785802D01*
X170868916Y-95968506D01*
X170868918Y-95968509D01*
X170956135Y-96139681D01*
X171069055Y-96295102D01*
X171204898Y-96430945D01*
X171360319Y-96543865D01*
X171531491Y-96631082D01*
X171531493Y-96631083D01*
X171622845Y-96660764D01*
X171714199Y-96690447D01*
X171903945Y-96720500D01*
X171903946Y-96720500D01*
X172096054Y-96720500D01*
X172096055Y-96720500D01*
X172285801Y-96690447D01*
X172468509Y-96631082D01*
X172639681Y-96543865D01*
X172795102Y-96430945D01*
X172930945Y-96295102D01*
X173043865Y-96139681D01*
X173131082Y-95968509D01*
X173131084Y-95968504D01*
X173152069Y-95903919D01*
X173191506Y-95846243D01*
X173255864Y-95819044D01*
X173324711Y-95830958D01*
X173376187Y-95878202D01*
X173387931Y-95903919D01*
X173408915Y-95968504D01*
X173408918Y-95968509D01*
X173496135Y-96139681D01*
X173609055Y-96295102D01*
X173744898Y-96430945D01*
X173900319Y-96543865D01*
X174071491Y-96631082D01*
X174071493Y-96631083D01*
X174162845Y-96660764D01*
X174254199Y-96690447D01*
X174443945Y-96720500D01*
X174443946Y-96720500D01*
X174636054Y-96720500D01*
X174636055Y-96720500D01*
X174825801Y-96690447D01*
X175008509Y-96631082D01*
X175179681Y-96543865D01*
X175335102Y-96430945D01*
X175470945Y-96295102D01*
X175583865Y-96139681D01*
X175671082Y-95968509D01*
X175730447Y-95785801D01*
X175760500Y-95596055D01*
X175760500Y-95403945D01*
X175730447Y-95214199D01*
X175700424Y-95121797D01*
X175671083Y-95031493D01*
X175583864Y-94860318D01*
X175470945Y-94704898D01*
X175335102Y-94569055D01*
X175179681Y-94456135D01*
X175008506Y-94368916D01*
X174825802Y-94309553D01*
X174730928Y-94294526D01*
X174636055Y-94279500D01*
X174443945Y-94279500D01*
X174380696Y-94289517D01*
X174254197Y-94309553D01*
X174071493Y-94368916D01*
X173900318Y-94456135D01*
X173811645Y-94520560D01*
X173744898Y-94569055D01*
X173744896Y-94569057D01*
X173744895Y-94569057D01*
X173609057Y-94704895D01*
X173609057Y-94704896D01*
X173609055Y-94704898D01*
X173560560Y-94771645D01*
X173496135Y-94860318D01*
X173408916Y-95031493D01*
X173387931Y-95096081D01*
X173348494Y-95153756D01*
X173284135Y-95180955D01*
X173215289Y-95169041D01*
X173163813Y-95121797D01*
X173152069Y-95096081D01*
X173131083Y-95031493D01*
X173043864Y-94860318D01*
X172930945Y-94704898D01*
X172795102Y-94569055D01*
X172639681Y-94456135D01*
X172468506Y-94368916D01*
X172285802Y-94309553D01*
X172190928Y-94294526D01*
X172096055Y-94279500D01*
X171903945Y-94279500D01*
X171840696Y-94289517D01*
X171714197Y-94309553D01*
X171531493Y-94368916D01*
X171360318Y-94456135D01*
X171271645Y-94520560D01*
X171204898Y-94569055D01*
X171204896Y-94569057D01*
X171204895Y-94569057D01*
X171069057Y-94704895D01*
X171069057Y-94704896D01*
X171069055Y-94704898D01*
X171020560Y-94771645D01*
X170956135Y-94860318D01*
X170868916Y-95031493D01*
X170809553Y-95214197D01*
X170779500Y-95403945D01*
X155755500Y-95403945D01*
X155755500Y-92824500D01*
X155775185Y-92757461D01*
X155827989Y-92711706D01*
X155879500Y-92700500D01*
X157068996Y-92700500D01*
X157160040Y-92682389D01*
X157204328Y-92673580D01*
X157268069Y-92647177D01*
X157331807Y-92620777D01*
X157331808Y-92620776D01*
X157331811Y-92620775D01*
X157446543Y-92544114D01*
X159194586Y-90796069D01*
X159234810Y-90769192D01*
X159289435Y-90746566D01*
X159379173Y-90709397D01*
X159379176Y-90709395D01*
X159379179Y-90709394D01*
X159510289Y-90621789D01*
X159621789Y-90510289D01*
X159709394Y-90379179D01*
X159769737Y-90233497D01*
X159800500Y-90078842D01*
X159800500Y-89921158D01*
X159800500Y-89921155D01*
X159800499Y-89921153D01*
X159786085Y-89848691D01*
X159769737Y-89766503D01*
X159731248Y-89673581D01*
X159709397Y-89620827D01*
X159709390Y-89620814D01*
X159621789Y-89489711D01*
X159621786Y-89489707D01*
X159510292Y-89378213D01*
X159510288Y-89378210D01*
X159379185Y-89290609D01*
X159379172Y-89290602D01*
X159233501Y-89230264D01*
X159233489Y-89230261D01*
X159078845Y-89199500D01*
X159078842Y-89199500D01*
X158921158Y-89199500D01*
X158921155Y-89199500D01*
X158766510Y-89230261D01*
X158766498Y-89230264D01*
X158620827Y-89290602D01*
X158620814Y-89290609D01*
X158489711Y-89378210D01*
X158489707Y-89378213D01*
X158378213Y-89489707D01*
X158378210Y-89489711D01*
X158290609Y-89620814D01*
X158290604Y-89620823D01*
X158230809Y-89765184D01*
X158203929Y-89805412D01*
X156746162Y-91263181D01*
X156684839Y-91296666D01*
X156658481Y-91299500D01*
X155879500Y-91299500D01*
X155812461Y-91279815D01*
X155766706Y-91227011D01*
X155755500Y-91175500D01*
X155755500Y-90874010D01*
X155755500Y-90874000D01*
X155743947Y-90766544D01*
X155732741Y-90715033D01*
X155730863Y-90709390D01*
X155698616Y-90612502D01*
X155698613Y-90612496D01*
X155620825Y-90491457D01*
X155620820Y-90491451D01*
X155575076Y-90438659D01*
X155575072Y-90438656D01*
X155575070Y-90438653D01*
X155466336Y-90344433D01*
X155466333Y-90344431D01*
X155466331Y-90344430D01*
X155335465Y-90284664D01*
X155335460Y-90284662D01*
X155335459Y-90284662D01*
X155268420Y-90264977D01*
X155268422Y-90264977D01*
X155268417Y-90264976D01*
X155220944Y-90258150D01*
X155126000Y-90244500D01*
X155125998Y-90244500D01*
X153418643Y-90244500D01*
X153351604Y-90224815D01*
X153305849Y-90172011D01*
X153295905Y-90102853D01*
X153297026Y-90096307D01*
X153300500Y-90078843D01*
X153300500Y-89921155D01*
X153300499Y-89921153D01*
X153286086Y-89848691D01*
X153292313Y-89779100D01*
X153335176Y-89723922D01*
X153401066Y-89700678D01*
X153407703Y-89700500D01*
X157068996Y-89700500D01*
X157160040Y-89682389D01*
X157204328Y-89673580D01*
X157268069Y-89647177D01*
X157331807Y-89620777D01*
X157331808Y-89620776D01*
X157331811Y-89620775D01*
X157446543Y-89544114D01*
X158794114Y-88196543D01*
X158870775Y-88081811D01*
X158923580Y-87954328D01*
X158950500Y-87818994D01*
X158950500Y-87681006D01*
X158950500Y-87381995D01*
X182372000Y-87381995D01*
X182372000Y-87618004D01*
X182372001Y-87618020D01*
X182402806Y-87852010D01*
X182463894Y-88079993D01*
X182554214Y-88298045D01*
X182554219Y-88298056D01*
X182625177Y-88420957D01*
X182672227Y-88502450D01*
X182672229Y-88502453D01*
X182672230Y-88502454D01*
X182815906Y-88689697D01*
X182815912Y-88689704D01*
X182982795Y-88856587D01*
X182982802Y-88856593D01*
X182999409Y-88869336D01*
X183170050Y-89000273D01*
X183301418Y-89076118D01*
X183374443Y-89118280D01*
X183374448Y-89118282D01*
X183374451Y-89118284D01*
X183592507Y-89208606D01*
X183820486Y-89269693D01*
X184054489Y-89300500D01*
X184054496Y-89300500D01*
X184290504Y-89300500D01*
X184290511Y-89300500D01*
X184524514Y-89269693D01*
X184752493Y-89208606D01*
X184970549Y-89118284D01*
X185174950Y-89000273D01*
X185362199Y-88856592D01*
X185529092Y-88689699D01*
X185672773Y-88502450D01*
X185790784Y-88298049D01*
X185881106Y-88079993D01*
X185942193Y-87852014D01*
X185973000Y-87618011D01*
X185973000Y-87381989D01*
X185942193Y-87147986D01*
X185881106Y-86920007D01*
X185790784Y-86701951D01*
X185790782Y-86701948D01*
X185790780Y-86701943D01*
X185719707Y-86578842D01*
X185672773Y-86497550D01*
X185529092Y-86310301D01*
X185529087Y-86310295D01*
X185362204Y-86143412D01*
X185362197Y-86143406D01*
X185174954Y-85999730D01*
X185174953Y-85999729D01*
X185174950Y-85999727D01*
X185093457Y-85952677D01*
X184970556Y-85881719D01*
X184970545Y-85881714D01*
X184752493Y-85791394D01*
X184524510Y-85730306D01*
X184290520Y-85699501D01*
X184290517Y-85699500D01*
X184290511Y-85699500D01*
X184054489Y-85699500D01*
X184054483Y-85699500D01*
X184054479Y-85699501D01*
X183820489Y-85730306D01*
X183592506Y-85791394D01*
X183374454Y-85881714D01*
X183374443Y-85881719D01*
X183170045Y-85999730D01*
X182982802Y-86143406D01*
X182982795Y-86143412D01*
X182815912Y-86310295D01*
X182815906Y-86310302D01*
X182672230Y-86497545D01*
X182554219Y-86701943D01*
X182554214Y-86701954D01*
X182463894Y-86920006D01*
X182402806Y-87147989D01*
X182372001Y-87381979D01*
X182372000Y-87381995D01*
X158950500Y-87381995D01*
X158950500Y-86925316D01*
X158959939Y-86877864D01*
X159019735Y-86733501D01*
X159019737Y-86733497D01*
X159050500Y-86578842D01*
X159050500Y-86421158D01*
X159050500Y-86421155D01*
X159050499Y-86421153D01*
X159025844Y-86297204D01*
X159019737Y-86266503D01*
X159019735Y-86266498D01*
X158959397Y-86120827D01*
X158959390Y-86120814D01*
X158871789Y-85989711D01*
X158871786Y-85989707D01*
X158760292Y-85878213D01*
X158760288Y-85878210D01*
X158629185Y-85790609D01*
X158629172Y-85790602D01*
X158483501Y-85730264D01*
X158483489Y-85730261D01*
X158328845Y-85699500D01*
X158328842Y-85699500D01*
X158171158Y-85699500D01*
X158171155Y-85699500D01*
X158016510Y-85730261D01*
X158016498Y-85730264D01*
X157870827Y-85790602D01*
X157870814Y-85790609D01*
X157739711Y-85878210D01*
X157739707Y-85878213D01*
X157628213Y-85989707D01*
X157628210Y-85989711D01*
X157540609Y-86120814D01*
X157540602Y-86120827D01*
X157480264Y-86266498D01*
X157480261Y-86266510D01*
X157449500Y-86421153D01*
X157449500Y-86578846D01*
X157480261Y-86733489D01*
X157480264Y-86733501D01*
X157540061Y-86877864D01*
X157549500Y-86925316D01*
X157549500Y-87408481D01*
X157529815Y-87475520D01*
X157513181Y-87496162D01*
X156746162Y-88263181D01*
X156684839Y-88296666D01*
X156658481Y-88299500D01*
X152925316Y-88299500D01*
X152877864Y-88290061D01*
X152733501Y-88230264D01*
X152733489Y-88230261D01*
X152578845Y-88199500D01*
X152578842Y-88199500D01*
X152421158Y-88199500D01*
X152421155Y-88199500D01*
X152266510Y-88230261D01*
X152266498Y-88230264D01*
X152120827Y-88290602D01*
X152120814Y-88290609D01*
X152068891Y-88325304D01*
X152002214Y-88346182D01*
X151934833Y-88327698D01*
X151931109Y-88325304D01*
X151879185Y-88290609D01*
X151879172Y-88290602D01*
X151733501Y-88230264D01*
X151733489Y-88230261D01*
X151578845Y-88199500D01*
X151578842Y-88199500D01*
X151421158Y-88199500D01*
X151421155Y-88199500D01*
X151266510Y-88230261D01*
X151266498Y-88230264D01*
X151120827Y-88290602D01*
X151120814Y-88290609D01*
X151068891Y-88325304D01*
X151002214Y-88346182D01*
X150934833Y-88327698D01*
X150931109Y-88325304D01*
X150879185Y-88290609D01*
X150879172Y-88290602D01*
X150733501Y-88230264D01*
X150733489Y-88230261D01*
X150578845Y-88199500D01*
X150578842Y-88199500D01*
X150421158Y-88199500D01*
X150421155Y-88199500D01*
X150266510Y-88230261D01*
X150266498Y-88230264D01*
X150120827Y-88290602D01*
X150120814Y-88290609D01*
X149989711Y-88378210D01*
X149989707Y-88378213D01*
X149878213Y-88489707D01*
X149878210Y-88489711D01*
X149790609Y-88620814D01*
X149790602Y-88620827D01*
X149730264Y-88766498D01*
X149730261Y-88766510D01*
X149699500Y-88921153D01*
X149699500Y-89078846D01*
X149730261Y-89233489D01*
X149730264Y-89233501D01*
X149790602Y-89379172D01*
X149790609Y-89379185D01*
X149825304Y-89431109D01*
X149846182Y-89497786D01*
X149827698Y-89565167D01*
X149825304Y-89568891D01*
X149790609Y-89620814D01*
X149790602Y-89620827D01*
X149730264Y-89766498D01*
X149730261Y-89766510D01*
X149699500Y-89921153D01*
X149699500Y-90078846D01*
X149730261Y-90233489D01*
X149730264Y-90233501D01*
X149790602Y-90379172D01*
X149790609Y-90379185D01*
X149878210Y-90510288D01*
X149878213Y-90510292D01*
X149989707Y-90621786D01*
X149989711Y-90621789D01*
X150120814Y-90709390D01*
X150120827Y-90709397D01*
X150258777Y-90766537D01*
X150266503Y-90769737D01*
X150314799Y-90779343D01*
X150394691Y-90795236D01*
X150456602Y-90827621D01*
X150491177Y-90888337D01*
X150494500Y-90916853D01*
X150494500Y-91625500D01*
X150474815Y-91692539D01*
X150422011Y-91738294D01*
X150370500Y-91749500D01*
X131896836Y-91749500D01*
X131829797Y-91729815D01*
X131809155Y-91713181D01*
X127664318Y-87568344D01*
X127630833Y-87507021D01*
X127627999Y-87480663D01*
X127627999Y-86399998D01*
X127627998Y-86399981D01*
X127617499Y-86297203D01*
X127617498Y-86297200D01*
X127607324Y-86266498D01*
X127562314Y-86130666D01*
X127470212Y-85981344D01*
X127346156Y-85857288D01*
X127239324Y-85791394D01*
X127196836Y-85765187D01*
X127196831Y-85765185D01*
X127195362Y-85764698D01*
X127030297Y-85710001D01*
X127030295Y-85710000D01*
X126927510Y-85699500D01*
X124727498Y-85699500D01*
X124727481Y-85699501D01*
X124624703Y-85710000D01*
X124624700Y-85710001D01*
X124458168Y-85765185D01*
X124458163Y-85765187D01*
X124308842Y-85857289D01*
X124184789Y-85981342D01*
X124092687Y-86130663D01*
X124092685Y-86130668D01*
X124088462Y-86143412D01*
X124037501Y-86297203D01*
X124037501Y-86297204D01*
X124037500Y-86297204D01*
X124027000Y-86399983D01*
X120500500Y-86399983D01*
X120500500Y-80624500D01*
X120520185Y-80557461D01*
X120572989Y-80511706D01*
X120624500Y-80500500D01*
X189375500Y-80500500D01*
X189442539Y-80520185D01*
G37*
%TD.AperFunction*%
%TD*%
%TA.AperFunction,Conductor*%
%TO.N,/VIN*%
G36*
X151241636Y-90759437D02*
G01*
X151266503Y-90769737D01*
X151266510Y-90769738D01*
X151266511Y-90769739D01*
X151421153Y-90800499D01*
X151421156Y-90800500D01*
X151421158Y-90800500D01*
X151578844Y-90800500D01*
X151578845Y-90800499D01*
X151689408Y-90778507D01*
X151733488Y-90769739D01*
X151733488Y-90769738D01*
X151733497Y-90769737D01*
X151758363Y-90759437D01*
X151805811Y-90750000D01*
X152194189Y-90750000D01*
X152241636Y-90759437D01*
X152266503Y-90769737D01*
X152266510Y-90769738D01*
X152266511Y-90769739D01*
X152421153Y-90800499D01*
X152421156Y-90800500D01*
X152421158Y-90800500D01*
X152578844Y-90800500D01*
X152578845Y-90800499D01*
X152689408Y-90778507D01*
X152733488Y-90769739D01*
X152733488Y-90769738D01*
X152733497Y-90769737D01*
X152758363Y-90759437D01*
X152805811Y-90750000D01*
X155126000Y-90750000D01*
X155193039Y-90769685D01*
X155238794Y-90822489D01*
X155250000Y-90874000D01*
X155250000Y-98126000D01*
X155230315Y-98193039D01*
X155177511Y-98238794D01*
X155126000Y-98250000D01*
X151124000Y-98250000D01*
X151056961Y-98230315D01*
X151011206Y-98177511D01*
X151000000Y-98126000D01*
X151000000Y-90874000D01*
X151002550Y-90865314D01*
X151001262Y-90856353D01*
X151012240Y-90832312D01*
X151019685Y-90806961D01*
X151026525Y-90801033D01*
X151030287Y-90792797D01*
X151052521Y-90778507D01*
X151072489Y-90761206D01*
X151083003Y-90758918D01*
X151089065Y-90755023D01*
X151124000Y-90750000D01*
X151194189Y-90750000D01*
X151241636Y-90759437D01*
G37*
%TD.AperFunction*%
%TD*%
M02*
